<?xml version="1.0" encoding="UTF-8"?>
<svg xmlns="http://www.w3.org/2000/svg" version="1.1" viewBox="0 0 188.4 331">
  <defs>
    <style>
      .cls-1 {
        fill: #fff;
      }
    </style>
  </defs>
  <!-- Generator: Adobe Illustrator 28.7.1, SVG Export Plug-In . SVG Version: 1.2.0 Build 142)  -->
  <g>
    <g id="Layer_1">
      <g id="Layer_1-2" data-name="Layer_1">
        <path class="cls-1" d="M128.3,206l-23.3,85.8c0,28.8,16.4,39.2,42.5,39.2s8.5-.3,8.5-.3v-21.4h-7.9c-14,0-20-6.4-20-17.8v-129.5h60.1v-19.5h-59.1c2.5-2.8,4.8-6.2,7-9.2,2.1-2.9,4-5.8,5.8-8.9,2.5-4.3,4.8-8.7,6.5-13.5,2.1-5.9,3.4-12.1,2.8-18.4-.7-8.1-3.6-15.1-8.7-21.3-3-3.6-6.7-6.7-10.8-8.6-10.6-4.9-21.2-5-31.6.7-2.3,1.2-4.4,2.7-6.3,4.5-2.9,2.7-5.3,5.7-7.3,9.1-3.1,5.4-4.7,11.2-4.8,17.3-.2,6.3,1.2,12.2,3.5,18.1,2.5,6.4,5.9,12.3,9.7,18,1.7,2.5,3.6,5,5.5,7.4,1.2,1.6,2.5,3,3.8,4.7H34.4v19.5h70.7v129.8l23.3-85.8ZM129.1,142.5c0-.2.2,0,.2,0h-.2ZM103.8,110.8c-2-3.9-3.7-7.8-4.4-12.1-.7-4.6,0-9,2.5-12.9,3.3-5.3,8.1-8.1,14.3-8.3,3.5,0,6.9.7,9.7,2.8,6.1,4.4,8.8,10.5,7.8,18-.6,4.4-2.4,8.5-4.4,12.5-2.5,4.9-5.6,9.4-8.9,13.9-1.2,1.6-2.5,3.1-3.9,4.8-3.7-4.4-7.1-8.9-9.9-13.6-1-1.6-2-3.3-2.9-5h0Z"/>
      </g>
    </g>
  </g>
</svg>