<svg width="344" height="256" viewBox="0 0 344 256" fill="none" xmlns="http://www.w3.org/2000/svg">
<path d="M70.0529 139.066C108.375 139.066 139.442 107.959 139.442 69.587C139.442 31.2148 108.375 0.10791 70.0529 0.10791C31.7305 0.10791 0.664062 31.2148 0.664062 69.587C0.664062 107.959 31.7305 139.066 70.0529 139.066Z" fill="white"/>
<path d="M81.0021 38.5201H34.9412C31.5901 38.5201 28.876 41.2342 28.876 44.5854V73.6723C28.876 77.0147 31.5901 79.7376 34.9412 79.7376H38.5804V89.4332C38.5804 89.9132 38.8683 90.367 39.3309 90.5503C39.4792 90.6201 39.6363 90.6462 39.7934 90.6462C40.1076 90.6462 40.4217 90.5241 40.6486 90.2972L48.2673 82.6785V72.4767C48.2673 72.0666 48.2935 71.6651 48.3633 71.2637H48.2673C47.5953 71.2637 47.0542 70.7226 47.0542 70.0506V62.7811C47.0542 62.1091 47.5953 61.568 48.2673 61.568H55.5368C56.2088 61.568 56.7499 62.1091 56.7499 62.7811V63.9941H59.176V62.7811C59.176 62.1091 59.717 61.568 60.389 61.568H67.6586C68.3305 61.568 68.8716 62.1091 68.8716 62.7811V63.9941H71.2977V62.7811C71.2977 62.1091 71.8388 61.568 72.5108 61.568H79.7803C80.4523 61.568 80.9934 62.1091 80.9934 62.7811V63.9941H87.0586V44.5854C87.0586 41.243 84.3445 38.5201 80.9934 38.5201H81.0021ZM44.6369 70.0332C44.6369 70.7052 44.0958 71.2462 43.4238 71.2462H36.1543C35.4823 71.2462 34.9412 70.7052 34.9412 70.0332V62.7636C34.9412 62.0917 35.4823 61.5506 36.1543 61.5506H43.4238C44.0958 61.5506 44.6369 62.0917 44.6369 62.7636V70.0332ZM44.6369 55.4941C44.6369 56.166 44.0958 56.7071 43.4238 56.7071H36.1543C35.4823 56.7071 34.9412 56.166 34.9412 55.4941V48.2245C34.9412 47.5525 35.4823 47.0115 36.1543 47.0115H43.4238C44.0958 47.0115 44.6369 47.5525 44.6369 48.2245V55.4941ZM56.7586 55.4941C56.7586 56.166 56.2175 56.7071 55.5456 56.7071H48.276C47.604 56.7071 47.063 56.166 47.063 55.4941V48.2245C47.063 47.5525 47.604 47.0115 48.276 47.0115H55.5456C56.2175 47.0115 56.7586 47.5525 56.7586 48.2245V55.4941ZM68.8803 55.4941C68.8803 56.166 68.3393 56.7071 67.6673 56.7071H60.3977C59.7258 56.7071 59.1847 56.166 59.1847 55.4941V48.2245C59.1847 47.5525 59.7258 47.0115 60.3977 47.0115H67.6673C68.3393 47.0115 68.8803 47.5525 68.8803 48.2245V55.4941ZM81.0021 55.4941C81.0021 56.166 80.461 56.7071 79.789 56.7071H72.5195C71.8475 56.7071 71.3064 56.166 71.3064 55.4941V48.2245C71.3064 47.5525 71.8475 47.0115 72.5195 47.0115H79.789C80.461 47.0115 81.0021 47.5525 81.0021 48.2245V55.4941Z" fill="#5C7A30"/>
<path d="M37.3672 49.4288H42.2106V54.2723H37.3672V49.4288Z" fill="#5C7A30"/>
<path d="M49.4802 49.4288H54.3237V54.2723H49.4802V49.4288Z" fill="#5C7A30"/>
<path d="M61.6021 49.4288H66.4455V54.2723H61.6021V49.4288Z" fill="#5C7A30"/>
<path d="M73.7239 49.4288H78.5673V54.2723H73.7239V49.4288Z" fill="#5C7A30"/>
<path d="M102.819 66.4027H56.7586C53.4162 66.4027 50.6934 69.1168 50.6934 72.4679V101.555C50.6934 104.897 53.4074 107.62 56.7586 107.62H85.0514C86.0201 107.62 86.9451 107.995 87.6258 108.685L97.1208 118.18C97.3564 118.415 97.6618 118.529 97.976 118.529C98.1331 118.529 98.2902 118.503 98.4385 118.433C98.9011 118.25 99.189 117.804 99.189 117.316V107.62H102.828C106.171 107.62 108.893 104.906 108.893 101.555V72.4679C108.893 69.1255 106.179 66.4027 102.828 66.4027H102.819ZM97.9673 99.1288C95.2881 99.1288 93.1238 96.9645 93.1238 94.2853C93.1238 91.6062 95.2881 89.4419 97.9673 89.4419C100.646 89.4419 102.811 91.6062 102.811 94.2853C102.811 96.9645 100.646 99.1288 97.9673 99.1288ZM85.8455 99.1288C83.1664 99.1288 81.0021 96.9645 81.0021 94.2853C81.0021 91.6062 83.1664 89.4419 85.8455 89.4419C88.5247 89.4419 90.689 91.6062 90.689 94.2853C90.689 96.9645 88.5247 99.1288 85.8455 99.1288ZM102.819 79.7375C102.819 82.4167 100.655 84.581 97.976 84.581C95.2968 84.581 93.1325 82.4167 93.1325 79.7375C93.1325 77.0583 95.2968 74.894 97.976 74.894C100.655 74.894 102.819 77.0583 102.819 79.7375ZM90.689 79.7375C90.689 82.4167 88.5247 84.581 85.8455 84.581C83.1664 84.581 81.0021 82.4167 81.0021 79.7375C81.0021 77.0583 83.1664 74.894 85.8455 74.894C88.5247 74.894 90.689 77.0583 90.689 79.7375ZM73.7238 84.581C71.0446 84.581 68.8803 82.4167 68.8803 79.7375C68.8803 77.0583 71.0446 74.894 73.7238 74.894C76.403 74.894 78.5673 77.0583 78.5673 79.7375C78.5673 82.4167 76.403 84.581 73.7238 84.581ZM78.5673 94.2766C78.5673 96.9558 76.403 99.1201 73.7238 99.1201C71.0446 99.1201 68.8803 96.9558 68.8803 94.2766C68.8803 91.5974 71.0446 89.4331 73.7238 89.4331C76.403 89.4331 78.5673 91.5974 78.5673 94.2766ZM61.6021 74.8853C64.2812 74.8853 66.4455 77.0496 66.4455 79.7288C66.4455 82.4079 64.2812 84.5722 61.6021 84.5722C58.9229 84.5722 56.7586 82.4079 56.7586 79.7288C56.7586 77.0496 58.9229 74.8853 61.6021 74.8853ZM61.6021 89.4331C64.2812 89.4331 66.4455 91.5974 66.4455 94.2766C66.4455 96.9558 64.2812 99.1201 61.6021 99.1201C58.9229 99.1201 56.7586 96.9558 56.7586 94.2766C56.7586 91.5974 58.9229 89.4331 61.6021 89.4331Z" fill="#5C7A30"/>
<path d="M100.385 79.7375C100.385 82.9665 95.5413 82.9665 95.5413 79.7375C95.5413 76.5085 100.385 76.4998 100.385 79.7375Z" fill="#5C7A30"/>
<path d="M88.2717 79.7375C88.2717 82.9665 83.4282 82.9665 83.4282 79.7375C83.4282 76.5085 88.2717 76.4998 88.2717 79.7375Z" fill="#5C7A30"/>
<path d="M76.1499 79.7375C76.1499 82.9665 71.3064 82.9665 71.3064 79.7375C71.3064 76.5085 76.1499 76.4998 76.1499 79.7375Z" fill="#5C7A30"/>
<path d="M64.028 79.7375C64.028 82.9665 59.1846 82.9665 59.1846 79.7375C59.1846 76.5085 64.028 76.4998 64.028 79.7375Z" fill="#5C7A30"/>
<path d="M100.385 94.2767C100.385 97.5057 95.5413 97.5057 95.5413 94.2767C95.5413 91.0477 100.385 91.0477 100.385 94.2767Z" fill="#5C7A30"/>
<path d="M88.2717 94.2767C88.2717 97.5057 83.4282 97.5057 83.4282 94.2767C83.4282 91.0477 88.2717 91.0477 88.2717 94.2767Z" fill="#5C7A30"/>
<path d="M76.1499 94.2767C76.1499 97.5057 71.3064 97.5057 71.3064 94.2767C71.3064 91.0477 76.1499 91.0477 76.1499 94.2767Z" fill="#5C7A30"/>
<path d="M64.028 94.2767C64.028 97.5057 59.1846 97.5057 59.1846 94.2767C59.1846 91.0477 64.028 91.0477 64.028 94.2767Z" fill="#5C7A30"/>
<path d="M127.148 278.024C165.471 278.024 196.537 246.917 196.537 208.545C196.537 170.173 165.471 139.066 127.148 139.066C88.8257 139.066 57.7593 170.173 57.7593 208.545C57.7593 246.917 88.8257 278.024 127.148 278.024Z" fill="white"/>
<path d="M157.02 211.79H125.429V209.098C125.429 207.517 124.141 206.229 122.561 206.229H104.581C104.073 206.229 103.663 205.82 103.663 205.312V202.844L107.937 196.668H144.21C145.859 196.668 147.205 195.322 147.205 193.673V164.015C147.205 162.366 145.859 161.02 144.21 161.02H104.698C103.049 161.02 101.702 162.366 101.702 164.015V205.322C101.702 206.903 102.99 208.19 104.571 208.19H122.551C123.059 208.19 123.468 208.6 123.468 209.107V211.8H91.8781C91.3415 211.8 90.9025 212.239 90.9025 212.776V240.054C90.9025 240.59 91.3415 241.029 91.8781 241.029H151.966C155.293 241.029 157.995 238.327 157.995 235V212.785C157.995 212.249 157.556 211.81 157.02 211.81V211.79ZM134.737 169.82H135.42C135.956 169.82 136.395 170.259 136.395 170.795C136.395 171.332 135.956 171.771 135.42 171.771H134.737C134.2 171.771 133.761 171.332 133.761 170.795C133.761 170.259 134.2 169.82 134.737 169.82ZM113.478 169.82H129.439C129.976 169.82 130.415 170.259 130.415 170.795C130.415 171.332 129.976 171.771 129.439 171.771H113.478C112.941 171.771 112.502 171.332 112.502 170.795C112.502 170.259 112.941 169.82 113.478 169.82ZM113.478 177.868H135.41C135.946 177.868 136.385 178.307 136.385 178.844C136.385 179.381 135.946 179.82 135.41 179.82H113.478C112.941 179.82 112.502 179.381 112.502 178.844C112.502 178.307 112.941 177.868 113.478 177.868ZM113.478 185.917H135.41C135.946 185.917 136.385 186.356 136.385 186.893C136.385 187.429 135.946 187.868 135.41 187.868H113.478C112.941 187.868 112.502 187.429 112.502 186.893C112.502 186.356 112.941 185.917 113.478 185.917ZM100.268 234.532H99.2927C98.7561 234.532 98.3171 234.093 98.3171 233.556C98.3171 233.02 98.7561 232.581 99.2927 232.581H100.268C100.805 232.581 101.244 233.02 101.244 233.556C101.244 234.093 100.805 234.532 100.268 234.532ZM100.268 227.381H99.2927C98.7561 227.381 98.3171 226.942 98.3171 226.405C98.3171 225.868 98.7561 225.429 99.2927 225.429H100.268C100.805 225.429 101.244 225.868 101.244 226.405C101.244 226.942 100.805 227.381 100.268 227.381ZM100.268 220.229H99.2927C98.7561 220.229 98.3171 219.79 98.3171 219.254C98.3171 218.717 98.7561 218.278 99.2927 218.278H100.268C100.805 218.278 101.244 218.717 101.244 219.254C101.244 219.79 100.805 220.229 100.268 220.229ZM108.639 234.532H106.776C106.239 234.532 105.8 234.093 105.8 233.556C105.8 233.02 106.239 232.581 106.776 232.581H108.639C109.176 232.581 109.615 233.02 109.615 233.556C109.615 234.093 109.176 234.532 108.639 234.532ZM108.639 227.381H106.776C106.239 227.381 105.8 226.942 105.8 226.405C105.8 225.868 106.239 225.429 106.776 225.429H108.639C109.176 225.429 109.615 225.868 109.615 226.405C109.615 226.942 109.176 227.381 108.639 227.381ZM108.639 220.229H106.776C106.239 220.229 105.8 219.79 105.8 219.254C105.8 218.717 106.239 218.278 106.776 218.278H108.639C109.176 218.278 109.615 218.717 109.615 219.254C109.615 219.79 109.176 220.229 108.639 220.229ZM117.01 234.532H115.146C114.61 234.532 114.171 234.093 114.171 233.556C114.171 233.02 114.61 232.581 115.146 232.581H117.01C117.546 232.581 117.985 233.02 117.985 233.556C117.985 234.093 117.546 234.532 117.01 234.532ZM117.01 227.381H115.146C114.61 227.381 114.171 226.942 114.171 226.405C114.171 225.868 114.61 225.429 115.146 225.429H117.01C117.546 225.429 117.985 225.868 117.985 226.405C117.985 226.942 117.546 227.381 117.01 227.381ZM117.01 220.229H115.146C114.61 220.229 114.171 219.79 114.171 219.254C114.171 218.717 114.61 218.278 115.146 218.278H117.01C117.546 218.278 117.985 218.717 117.985 219.254C117.985 219.79 117.546 220.229 117.01 220.229ZM125.381 234.532H123.517C122.981 234.532 122.541 234.093 122.541 233.556C122.541 233.02 122.981 232.581 123.517 232.581H125.381C125.917 232.581 126.356 233.02 126.356 233.556C126.356 234.093 125.917 234.532 125.381 234.532ZM125.381 227.381H123.517C122.981 227.381 122.541 226.942 122.541 226.405C122.541 225.868 122.981 225.429 123.517 225.429H125.381C125.917 225.429 126.356 225.868 126.356 226.405C126.356 226.942 125.917 227.381 125.381 227.381ZM125.381 220.229H123.517C122.981 220.229 122.541 219.79 122.541 219.254C122.541 218.717 122.981 218.278 123.517 218.278H125.381C125.917 218.278 126.356 218.717 126.356 219.254C126.356 219.79 125.917 220.229 125.381 220.229ZM133.751 234.532H131.888C131.351 234.532 130.912 234.093 130.912 233.556C130.912 233.02 131.351 232.581 131.888 232.581H133.751C134.288 232.581 134.727 233.02 134.727 233.556C134.727 234.093 134.288 234.532 133.751 234.532ZM133.751 227.381H131.888C131.351 227.381 130.912 226.942 130.912 226.405C130.912 225.868 131.351 225.429 131.888 225.429H133.751C134.288 225.429 134.727 225.868 134.727 226.405C134.727 226.942 134.288 227.381 133.751 227.381ZM133.751 220.229H131.888C131.351 220.229 130.912 219.79 130.912 219.254C130.912 218.717 131.351 218.278 131.888 218.278H133.751C134.288 218.278 134.727 218.717 134.727 219.254C134.727 219.79 134.288 220.229 133.751 220.229ZM142.122 234.532H140.259C139.722 234.532 139.283 234.093 139.283 233.556C139.283 233.02 139.722 232.581 140.259 232.581H142.122C142.659 232.581 143.098 233.02 143.098 233.556C143.098 234.093 142.659 234.532 142.122 234.532ZM142.122 227.381H140.259C139.722 227.381 139.283 226.942 139.283 226.405C139.283 225.868 139.722 225.429 140.259 225.429H142.122C142.659 225.429 143.098 225.868 143.098 226.405C143.098 226.942 142.659 227.381 142.122 227.381ZM142.122 220.229H140.259C139.722 220.229 139.283 219.79 139.283 219.254C139.283 218.717 139.722 218.278 140.259 218.278H142.122C142.659 218.278 143.098 218.717 143.098 219.254C143.098 219.79 142.659 220.229 142.122 220.229ZM149.605 234.532H148.629C148.093 234.532 147.654 234.093 147.654 233.556C147.654 233.02 148.093 232.581 148.629 232.581H149.605C150.141 232.581 150.581 233.02 150.581 233.556C150.581 234.093 150.141 234.532 149.605 234.532ZM149.605 227.381H148.629C148.093 227.381 147.654 226.942 147.654 226.405C147.654 225.868 148.093 225.429 148.629 225.429H149.605C150.141 225.429 150.581 225.868 150.581 226.405C150.581 226.942 150.141 227.381 149.605 227.381ZM149.605 220.229H148.629C148.093 220.229 147.654 219.79 147.654 219.254C147.654 218.717 148.093 218.278 148.629 218.278H149.605C150.141 218.278 150.581 218.717 150.581 219.254C150.581 219.79 150.141 220.229 149.605 220.229Z" fill="#5C7A30"/>
<path d="M217.098 156.757C255.42 156.757 286.487 125.65 286.487 87.278C286.487 48.9057 255.42 17.7989 217.098 17.7989C178.775 17.7989 147.709 48.9057 147.709 87.278C147.709 125.65 178.775 156.757 217.098 156.757Z" fill="white"/>
<g clip-path="url(#clip0_362_3238)">
<path d="M231.406 98.1217L227.539 109.259H235.35L231.481 98.1217H231.406Z" fill="#5C7A30"/>
<path d="M227.113 57.5735C226.152 53.2329 221.944 49.2563 217.592 48.4125C214.941 47.8829 207.544 47.2282 202.652 47.2813C197.76 47.2282 190.363 47.8829 187.712 48.4125C183.36 49.2563 179.153 53.2329 178.192 57.5735C177.645 60.2094 177.107 63.7938 177.098 68.6875C177.106 73.5813 177.643 77.1657 178.192 79.8016C179.153 84.1422 183.36 88.1188 187.712 88.9625C189.143 89.2485 191.959 89.5719 195.016 89.7985C195.363 90.3422 195.738 90.9219 196.144 91.536C197.766 93.9922 199.008 95.7047 199.949 96.8985C201.515 98.8829 203.793 98.8829 205.358 96.8985C206.299 95.7063 207.539 93.9938 209.163 91.536C209.569 90.9219 209.944 90.3422 210.291 89.7985C213.349 89.5704 216.164 89.2485 217.596 88.9625C221.947 88.1188 226.155 84.1422 227.116 79.8016C227.663 77.1657 228.2 73.5813 228.209 68.6875C228.202 63.7938 227.664 60.2079 227.116 57.5735H227.113ZM217.308 61.2454H212.811C211.024 65.6594 208.45 69.6688 205.25 73.05C205.375 73.1563 205.5 73.2641 205.629 73.3672L208.55 75.7704L214.008 80.2579L211.732 83.0172L203.352 76.1266C203.116 75.9329 202.883 75.736 202.652 75.536C202.421 75.736 202.19 75.9329 201.954 76.1266L193.574 83.0172L191.298 80.2579L199.677 73.3672C199.804 73.2625 199.93 73.1563 200.055 73.05C197.552 70.4063 195.433 67.3782 193.774 64.0735H197.832C199.182 66.4438 200.802 68.6313 202.652 70.5875C205.218 67.875 207.339 64.7141 208.916 61.2438H187.996V57.6688H200.861V54.211H204.441V57.6688H217.306V61.2438H217.308V61.2454Z" fill="#5C7A30"/>
<path d="M256.003 94.7545C255.042 90.4139 250.834 86.4373 246.482 85.5936C243.831 85.0639 236.434 84.4092 231.542 84.4623C231.042 84.4561 230.516 84.4592 229.972 84.467C229.131 86.0451 228 87.5357 226.638 88.8404C224.27 91.1061 221.358 92.667 218.438 93.2357C217.181 93.4857 215.149 93.7451 212.78 93.9639C211.272 96.2467 209.925 98.1404 208.78 99.5951C208.013 100.569 207.111 101.329 206.124 101.862C206.043 103.09 205.993 104.42 205.99 105.869C205.997 110.762 206.535 114.347 207.083 116.983C208.044 121.323 212.252 125.3 216.603 126.144C219.255 126.673 226.652 127.328 231.544 127.275C236.436 127.329 243.833 126.673 246.484 126.144C250.835 125.3 255.043 121.323 256.004 116.983C256.551 114.347 257.089 110.762 257.098 105.869C257.09 100.975 256.553 97.3904 256.004 94.7545H256.003ZM238.387 117.92L236.853 113.437H226.228L224.694 117.92H219.98L229.406 91.7701H233.708L243.097 117.92H238.383H238.387Z" fill="#5C7A30"/>
<path d="M253.609 68.5905C252.753 67.7342 251.365 67.7342 250.509 68.5905L247.789 71.3108H247.784V64.7327C247.784 60.1592 244.064 56.4389 239.49 56.4389H235.547C234.339 56.4389 233.359 57.4186 233.359 58.6264C233.359 59.8342 234.339 60.8139 235.547 60.8139H239.49C241.651 60.8139 243.409 62.5717 243.409 64.7327V71.2123H243.404L240.684 68.492C239.828 67.6358 238.44 67.6358 237.584 68.492C236.728 69.3483 236.728 70.7358 237.584 71.592L242.64 76.6483C243.443 77.4514 244.511 77.8936 245.645 77.8936C246.779 77.8936 247.848 77.4514 248.65 76.6483L253.609 71.6889C254.037 71.2608 254.251 70.6998 254.251 70.1389C254.251 69.578 254.037 69.017 253.609 68.5889V68.5905Z" fill="#5C7A30"/>
<path d="M198.647 113.74H194.704C192.543 113.74 190.785 111.983 190.785 109.822V103.342H190.79L193.51 106.062C194.366 106.919 195.754 106.919 196.61 106.062C197.466 105.206 197.466 103.819 196.61 102.962L191.554 97.9061C190.751 97.103 189.684 96.6608 188.549 96.6608C187.415 96.6608 186.346 97.103 185.545 97.9061L180.585 102.865C180.157 103.294 179.943 103.855 179.943 104.415C179.943 104.976 180.157 105.537 180.585 105.965C181.442 106.822 182.829 106.822 183.685 105.965L186.405 103.245H186.41V109.823C186.41 114.397 190.13 118.117 194.704 118.117H198.647C199.855 118.117 200.835 117.137 200.835 115.93C200.835 114.722 199.855 113.742 198.647 113.742V113.74Z" fill="#5C7A30"/>
</g>
<path d="M274.193 295.715C312.515 295.715 343.582 264.608 343.582 226.236C343.582 187.864 312.515 156.757 274.193 156.757C235.871 156.757 204.804 187.864 204.804 226.236C204.804 264.608 235.871 295.715 274.193 295.715Z" fill="white"/>
<path d="M246.492 258.198V190.503L242 190.486V263.757H298.729V259.384H247.678C247.017 259.384 246.492 258.859 246.492 258.198ZM293.254 194.994V183.842L248.864 183.757V257.011H305.593V196.164H294.441C293.797 196.181 293.254 195.638 293.254 194.994ZM295.627 185.52V193.791L303.915 193.808L295.627 185.52ZM253.966 229.283C253.305 229.283 252.78 228.757 252.78 228.096C252.78 227.435 253.305 226.91 253.966 226.91H264.407C265.068 226.91 265.593 227.435 265.593 228.096C265.593 228.757 265.068 229.283 264.407 229.283H253.966ZM253.966 235.52C253.305 235.52 252.78 234.994 252.78 234.333C252.78 233.672 253.305 233.147 253.966 233.147H268C268.661 233.147 269.186 233.672 269.186 234.333C269.186 234.994 268.661 235.52 268 235.52H253.966ZM253.966 241.74C253.305 241.74 252.78 241.215 252.78 240.554C252.78 239.893 253.305 239.367 253.966 239.367H271.305C271.966 239.367 272.492 239.893 272.492 240.554C272.492 241.215 271.966 241.74 271.305 241.74H253.966ZM253.966 247.977C253.305 247.977 252.78 247.452 252.78 246.791C252.78 246.13 253.305 245.605 253.966 245.605H265.051C265.712 245.605 266.237 246.13 266.237 246.791C266.237 247.452 265.712 247.977 265.051 247.977H253.966ZM253.966 203.079C253.305 203.079 252.78 202.554 252.78 201.893C252.78 201.232 253.305 200.706 253.966 200.706H260.525C261.186 200.706 261.712 201.232 261.712 201.893C261.712 202.554 261.186 203.079 260.525 203.079H253.966ZM253.966 209.3C253.305 209.3 252.78 208.774 252.78 208.113C252.78 207.452 253.305 206.927 253.966 206.927H271.576C272.237 206.927 272.763 207.452 272.763 208.113C272.763 208.774 272.237 209.3 271.576 209.3H253.966ZM253.966 215.537C253.305 215.537 252.78 215.011 252.78 214.35C252.78 213.689 253.305 213.164 253.966 213.164H271.576C272.237 213.164 272.763 213.689 272.763 214.35C272.763 215.011 272.237 215.537 271.576 215.537H253.966ZM253.966 221.757C253.305 221.757 252.78 221.232 252.78 220.571C252.78 219.91 253.305 219.384 253.966 219.384H271.576C272.237 219.384 272.763 219.91 272.763 220.571C272.763 221.232 272.237 221.757 271.576 221.757H253.966ZM284.559 204.283H291.136C295.492 204.283 299.068 207.842 299.068 212.215V231.028C299.068 235.384 295.508 238.961 291.136 238.961H284.559C280.203 238.961 276.627 235.401 276.627 231.028V212.215C276.627 207.842 280.186 204.283 284.559 204.283ZM284.356 206.655V210.757C284.356 211.418 283.831 211.944 283.169 211.944C282.508 211.944 281.983 211.418 281.983 210.757V207.3C280.186 208.249 279 210.113 279 212.215V215.401H284.373C285.034 215.401 285.559 215.927 285.559 216.588C285.559 217.249 285.034 217.774 284.373 217.774H279V220.079H284.373C285.034 220.079 285.559 220.605 285.559 221.266C285.559 221.927 285.034 222.452 284.373 222.452H279V224.757H284.373C285.034 224.757 285.559 225.283 285.559 225.944C285.559 226.605 285.034 227.13 284.373 227.13H279V229.435H282.678C283.339 229.435 283.864 229.961 283.864 230.622C283.864 231.283 283.339 231.808 282.678 231.808H279.051C279.441 234.52 281.78 236.588 284.559 236.588H291.136C293.915 236.588 296.254 234.52 296.644 231.808H293.034C292.373 231.808 291.847 231.283 291.847 230.622C291.847 229.961 292.373 229.435 293.034 229.435H296.678V227.13H291.305C290.644 227.13 290.119 226.605 290.119 225.944C290.119 225.283 290.644 224.757 291.305 224.757H296.678V222.452H291.305C290.644 222.452 290.119 221.927 290.119 221.266C290.119 220.605 290.644 220.079 291.305 220.079H296.678V217.774H291.305C290.644 217.774 290.119 217.249 290.119 216.588C290.119 215.927 290.644 215.401 291.305 215.401H296.678V212.215C296.678 210.113 295.492 208.249 293.695 207.3V210.757C293.695 211.418 293.169 211.944 292.508 211.944C291.847 211.944 291.322 211.418 291.322 210.757V206.655H289.017V210.757C289.017 211.418 288.492 211.944 287.831 211.944C287.169 211.944 286.644 211.418 286.644 210.757V206.655H284.356ZM294.051 248.893H291.085C290.864 249.164 290.525 249.35 290.153 249.35H285.542C285.169 249.35 284.831 249.181 284.61 248.893H281.644C280.746 248.893 280.017 249.638 280.017 250.537V252.164H295.712V250.537C295.678 249.638 294.949 248.893 294.051 248.893ZM286.712 246.52H288.949V243.028H286.712V246.52ZM281.627 246.52H284.339V243.011C277.831 242.554 272.678 237.079 272.678 230.503C272.678 229.842 273.203 229.316 273.864 229.316C274.525 229.316 275.051 229.842 275.051 230.503C275.051 236.096 279.627 240.672 285.22 240.672H290.441C296.034 240.672 300.61 236.096 300.61 230.503C300.61 229.842 301.136 229.316 301.797 229.316C302.458 229.316 302.983 229.842 302.983 230.503C302.983 237.079 297.847 242.554 291.339 243.011V246.52H294.051C296.254 246.52 298.051 248.316 298.051 250.537V253.35C298.051 254.011 297.525 254.537 296.864 254.537H278.814C278.153 254.537 277.627 254.011 277.627 253.35V250.537C277.61 248.316 279.424 246.52 281.627 246.52ZM253.966 196.672C253.305 196.672 252.78 196.147 252.78 195.486C252.78 194.825 253.305 194.3 253.966 194.3H287.627C288.288 194.3 288.814 194.825 288.814 195.486C288.814 196.147 288.288 196.672 287.627 196.672H253.966Z" fill="#5C7A30"/>
<defs>
<clipPath id="clip0_362_3238">
<rect width="80" height="80" fill="white" transform="translate(177.098 47.278)"/>
</clipPath>
</defs>
</svg>
