<svg width="296" height="413" viewBox="0 0 296 413" fill="none" xmlns="http://www.w3.org/2000/svg">
<g clip-path="url(#clip0_153_400)">
<path d="M276.449 372.303C266.876 376.54 207.496 401.659 147.603 372.452C105.401 351.876 86.3877 315.763 79.3775 301.977C60.4384 264.741 61.141 231.173 62.4885 190.401C63.6624 154.908 69.6558 100.64 94.1999 36.8974H296V0H19.8072C13.202 12.2991 6.60515 24.5983 0 36.8974C22.3947 36.5835 44.7894 37.2113 67.184 36.8974C39.788 109.511 30.1489 179.779 35.5058 238.483C39.0853 277.751 49.1873 331.16 93.77 370.643C129.193 402.014 170.32 409.002 181.968 410.828C223.707 417.378 257.055 407.573 272.696 401.849C273.944 392.003 275.201 382.157 276.449 372.303Z" fill="white"/>
<path d="M126.168 223.821C135.007 223.821 142.172 216.662 142.172 207.83C142.172 198.998 135.007 191.839 126.168 191.839C117.329 191.839 110.163 198.998 110.163 207.83C110.163 216.662 117.329 223.821 126.168 223.821Z" fill="white"/>
<path d="M139.337 255.804C148.176 255.804 155.341 248.644 155.341 239.813C155.341 230.981 148.176 223.821 139.337 223.821C130.497 223.821 123.332 230.981 123.332 239.813C123.332 248.644 130.497 255.804 139.337 255.804Z" fill="white"/>
</g>
<defs>
<clipPath id="clip0_153_400">
<rect width="296" height="413" fill="white"/>
</clipPath>
</defs>
</svg>
