<svg width="152" height="51" viewBox="0 0 152 51" fill="none" xmlns="http://www.w3.org/2000/svg">
<path d="M44.1535 41.758V39.869C42.3761 41.3218 40.0548 42.3383 37.2396 42.3383C32.7469 42.3383 29.8818 39.773 29.8818 35.949C29.8818 31.3006 34.1286 28.8794 40.5967 28.8794H44.2016V28.0089C44.2016 24.9094 42.1762 24.185 39.2631 24.185C36.7938 24.185 34.8184 24.5712 33.1389 25.4436L31.9533 23.0224C33.7808 21.9559 36.496 21.4236 39.0152 21.4236C44.5456 21.4236 47.3607 23.5066 47.3607 27.3786V41.758H44.1516H44.1535ZM44.1535 31.5428H41.4383C36.0559 31.5428 33.1928 32.8014 33.1928 35.949C33.1928 38.3222 35.4141 39.4828 37.8334 39.4828C40.2527 39.4828 42.3761 38.5143 44.1535 37.1596V31.5428Z" fill="#5C7A30"/>
<path d="M61.1422 25.4916C60.2045 24.7172 59.2668 24.3771 58.2291 24.3771C55.6119 24.3771 53.4386 27.2826 53.4386 30.6723V41.7599H50.2295V22.0059H53.4386V24.7172C54.5742 22.7803 56.4516 21.4255 58.771 21.4255C60.4005 21.4255 61.5362 21.8617 62.7718 22.9263L61.1422 25.4916Z" fill="#5C7A30"/>
<path d="M62.032 50.6665C61.0443 50.6665 60.5504 50.6184 59.7607 50.4244L59.5627 47.6649C60.4025 47.859 60.9463 47.9071 61.6381 47.859C62.4279 47.859 63.3156 47.6169 63.3156 46.3583V22.0058H66.5266V46.6004C66.5266 49.6019 64.2553 50.6665 62.032 50.6665ZM63.3156 16.9693V12.321H66.5266V16.9693H63.3156Z" fill="#5C7A30"/>
<path d="M82.5759 41.758V39.869C80.7984 41.3218 78.4771 42.3383 75.662 42.3383C71.1693 42.3383 68.3042 39.773 68.3042 35.949C68.3042 31.3006 72.5509 28.8794 79.019 28.8794H82.6239V28.0089C82.6239 24.9094 80.5986 24.185 77.6854 24.185C75.2162 24.185 73.2408 24.5712 71.5613 25.4436L70.3757 23.0224C72.2031 21.9559 74.9183 21.4236 77.4376 21.4236C82.9679 21.4236 85.7831 23.5066 85.7831 27.3786V41.758H82.574H82.5759ZM82.5759 31.5428H79.8607C74.4783 31.5428 71.6151 32.8014 71.6151 35.949C71.6151 38.3222 73.8365 39.4828 76.2558 39.4828C78.6751 39.4828 80.7984 38.5143 82.5759 37.1596V31.5428Z" fill="#5C7A30"/>
<path d="M114.674 41.758V28.9275C114.674 26.07 113.143 24.3291 110.625 24.3291C107.414 24.3291 104.897 26.8464 104.897 29.7999V41.758H101.686V28.9275C101.686 26.07 100.304 24.3291 97.5392 24.3291C94.3782 24.3291 91.8609 26.8944 91.8609 29.8479V41.758H88.6519V22.0039H91.8609V24.6673C93.0466 22.7783 95.4159 21.4236 97.9851 21.4236C101.294 21.4236 103.219 22.8283 104.207 25.0055C105.689 22.8264 108.552 21.4236 111.121 21.4236C115.912 21.4236 117.935 24.5712 117.935 28.5412V41.758H114.676H114.674Z" fill="#5C7A30"/>
<path d="M133.541 41.758V39.869C131.763 41.3218 129.442 42.3383 126.627 42.3383C122.132 42.3383 119.269 39.773 119.269 35.949C119.269 31.3006 123.516 28.8794 129.986 28.8794H133.59V28.0089C133.59 24.9094 131.565 24.185 128.652 24.185C126.183 24.185 124.207 24.5712 122.528 25.4436L121.342 23.0224C123.17 21.9559 125.885 21.4236 128.404 21.4236C133.934 21.4236 136.75 23.5066 136.75 27.3786V41.758H133.541ZM133.541 31.5428H130.825C125.443 31.5428 122.578 32.8014 122.578 35.949C122.578 38.3222 124.801 39.4828 127.22 39.4828C129.64 39.4828 131.763 38.5143 133.541 37.1596V31.5428Z" fill="#5C7A30"/>
<path d="M28.185 38.3625C27.2165 38.791 21.2096 41.3352 15.1508 38.3779C10.881 36.2949 8.95745 32.6381 8.24838 31.243C6.33254 27.4728 6.40364 24.0735 6.54008 19.9459C6.65922 16.3525 7.26452 10.8587 9.74722 4.40401H30.1623V0.666504H2.22224C1.55353 1.9117 0.886734 3.1569 0.218018 4.40209C2.48358 4.36942 4.74915 4.43476 7.01471 4.40209C4.24377 11.7541 3.26759 18.8679 3.80948 24.8133C4.17075 28.7891 5.19304 34.1965 9.70303 38.1953C13.2868 41.3717 17.4471 42.0789 18.625 42.2633C22.8468 42.9263 26.2211 41.9328 27.8045 41.3544C27.9313 40.3571 28.0581 39.3598 28.185 38.3625Z" fill="#5C7A30"/>
<path d="M12.9812 23.3279C13.8759 23.3279 14.6011 22.6026 14.6011 21.708C14.6011 20.8133 13.8759 20.0881 12.9812 20.0881C12.0866 20.0881 11.3613 20.8133 11.3613 21.708C11.3613 22.6026 12.0866 23.3279 12.9812 23.3279Z" fill="#5C7A30"/>
<path d="M14.313 26.5677C15.2077 26.5677 15.9329 25.8425 15.9329 24.9478C15.9329 24.0532 15.2077 23.3279 14.313 23.3279C13.4184 23.3279 12.6931 24.0532 12.6931 24.9478C12.6931 25.8425 13.4184 26.5677 14.313 26.5677Z" fill="#5C7A30"/>
<path d="M142.51 22.9551L138.93 35.9643C138.93 40.3379 141.463 41.904 145.483 41.904C145.593 41.904 146.805 41.8502 146.805 41.8502V38.6104H145.595C143.446 38.6104 142.51 37.64 142.51 35.9105V16.2814H151.782V13.3337C150.354 13.3337 144.155 13.3337 142.672 13.3337C143.056 12.9071 143.406 12.394 143.744 11.9328C144.063 11.4966 144.365 11.0489 144.645 10.5877C145.041 9.93629 145.383 9.26181 145.644 8.54889C145.975 7.64574 146.159 6.72337 146.081 5.75681C145.981 4.53852 145.525 3.46242 144.736 2.52468C144.274 1.9751 143.711 1.51968 143.058 1.21992C141.423 0.472414 139.786 0.460884 138.181 1.33521C137.829 1.52737 137.501 1.74451 137.203 2.01738C136.757 2.42476 136.382 2.88018 136.081 3.39709C135.602 4.21377 135.364 5.09578 135.327 6.0316C135.291 6.98471 135.516 7.89363 135.864 8.77564C136.244 9.74605 136.774 10.6415 137.364 11.5005C137.63 11.8867 137.916 12.2595 138.208 12.6265C138.392 12.859 138.596 13.0762 138.796 13.3356H129.645V16.2833H138.929V35.9663L142.51 22.9551ZM142.641 13.3318C142.654 13.3029 142.66 13.3337 142.668 13.3318H142.641ZM138.742 8.51815C138.435 7.9359 138.175 7.33636 138.073 6.68494C137.964 5.98932 138.079 5.33214 138.463 4.72683C138.973 3.92745 139.703 3.49317 140.662 3.46242C141.2 3.44513 141.721 3.57003 142.157 3.88517C143.095 4.56158 143.508 5.47818 143.362 6.61769C143.273 7.29409 143 7.91284 142.683 8.51622C142.293 9.25988 141.826 9.95166 141.311 10.6165C141.123 10.8606 140.923 11.0931 140.71 11.3467C140.137 10.6761 139.624 9.9997 139.182 9.27334C139.03 9.02353 138.879 8.77564 138.742 8.51815Z" fill="#5C7A30"/>
</svg>
