<svg width="141" height="50" viewBox="0 0 141 50" fill="none" xmlns="http://www.w3.org/2000/svg">
<path d="M40.7796 38.7799V36.9972C39.1298 38.3682 36.9752 39.3275 34.3623 39.3275C30.1923 39.3275 27.533 36.9065 27.533 33.2977C27.533 28.9108 31.4747 26.6258 37.4782 26.6258H40.8242V25.8043C40.8242 22.8791 38.9443 22.1954 36.2404 22.1954C33.9485 22.1954 32.115 22.5599 30.5561 23.3833L29.4557 21.0982C31.1518 20.0918 33.672 19.5894 36.0103 19.5894C41.1434 19.5894 43.7564 21.5552 43.7564 25.2095V38.7799H40.7778H40.7796ZM40.7796 29.1393H38.2594C33.2636 29.1393 30.6061 30.3271 30.6061 33.2977C30.6061 35.5373 32.6679 36.6327 34.9134 36.6327C37.1589 36.6327 39.1298 35.7187 40.7796 34.4402V29.1393Z" fill="white"/>
<path d="M56.5484 23.4286C55.678 22.6978 54.8076 22.3768 53.8445 22.3768C51.4152 22.3768 49.398 25.1188 49.398 28.3178V38.7817H46.4194V20.1389H49.398V22.6978C50.4521 20.8698 52.1947 19.5912 54.3474 19.5912C55.8599 19.5912 56.914 20.0029 58.0608 21.0076L56.5484 23.4286Z" fill="white"/>
<path d="M57.3742 47.1873C56.4574 47.1873 55.999 47.142 55.266 46.9588L55.0823 44.3546C55.8617 44.5378 56.3665 44.5831 57.0085 44.5378C57.7416 44.5378 58.5656 44.3093 58.5656 43.1214V20.1389H61.546V43.3499C61.546 46.1826 59.4378 47.1873 57.3742 47.1873ZM58.5656 15.3858V10.9989H61.546V15.3858H58.5656Z" fill="white"/>
<path d="M76.4424 38.7799V36.9972C74.7926 38.3682 72.6381 39.3275 70.0251 39.3275C65.8551 39.3275 63.1958 36.9065 63.1958 33.2977C63.1958 28.9108 67.1375 26.6258 73.141 26.6258H76.487V25.8043C76.487 22.8791 74.6071 22.1954 71.9032 22.1954C69.6113 22.1954 67.7778 22.5599 66.219 23.3833L65.1185 21.0982C66.8147 20.0918 69.3349 19.5894 71.6731 19.5894C76.8063 19.5894 79.4192 21.5552 79.4192 25.2095V38.7799H76.4407H76.4424ZM76.4424 29.1393H73.9222C68.9264 29.1393 66.2689 30.3271 66.2689 33.2977C66.2689 35.5373 68.3307 36.6327 70.5762 36.6327C72.8218 36.6327 74.7926 35.7187 76.4424 34.4402V29.1393Z" fill="white"/>
<path d="M106.235 38.7799V26.6711C106.235 23.9745 104.814 22.3314 102.477 22.3314C99.4969 22.3314 97.1604 24.7071 97.1604 27.4945V38.7799H94.18V26.6711C94.18 23.9745 92.8977 22.3314 90.3311 22.3314C87.3971 22.3314 85.0606 24.7525 85.0606 27.5398V38.7799H82.082V20.1371H85.0606V22.6506C86.1611 20.8679 88.3602 19.5894 90.7449 19.5894C93.8162 19.5894 95.6033 20.9151 96.5201 22.9698C97.8952 20.9133 100.553 19.5894 102.937 19.5894C107.384 19.5894 109.262 22.5599 109.262 26.3066V38.7799H106.237H106.235Z" fill="white"/>
<path d="M123.747 38.7799V36.9972C122.097 38.3682 119.942 39.3275 117.329 39.3275C113.158 39.3275 110.5 36.9065 110.5 33.2977C110.5 28.9108 114.442 26.6258 120.447 26.6258H123.793V25.8043C123.793 22.8791 121.913 22.1954 119.209 22.1954C116.917 22.1954 115.084 22.5599 113.525 23.3833L112.424 21.0982C114.121 20.0918 116.641 19.5894 118.979 19.5894C124.112 19.5894 126.725 21.5552 126.725 25.2095V38.7799H123.747ZM123.747 29.1393H121.226C116.231 29.1393 113.571 30.3271 113.571 33.2977C113.571 35.5373 115.635 36.6327 117.88 36.6327C120.126 36.6327 122.097 35.7187 123.747 34.4402V29.1393Z" fill="white"/>
<path d="M25.9582 35.5754C25.0593 35.9798 19.4838 38.3809 13.8602 35.5899C9.89708 33.6241 8.11172 30.173 7.45357 28.8564C5.67535 25.2983 5.74134 22.0902 5.86797 18.1948C5.97856 14.8036 6.54038 9.6188 8.84477 3.52726H27.7935V0H1.86027C1.23959 1.17515 0.620685 2.3503 0 3.52544C2.10284 3.49461 4.20568 3.55627 6.30852 3.52544C3.7366 10.4639 2.83054 17.1775 3.33351 22.7884C3.66882 26.5406 4.61769 31.6438 8.80374 35.4176C12.1301 38.4154 15.9916 39.0827 17.0849 39.2568C21.0034 39.8825 24.1354 38.9449 25.6051 38.399C25.7228 37.4578 25.8405 36.5166 25.9582 35.5754Z" fill="white"/>
<path d="M11.8463 21.3866C12.6767 21.3866 13.3499 20.7021 13.3499 19.8578C13.3499 19.0135 12.6767 18.329 11.8463 18.329C11.0159 18.329 10.3428 19.0135 10.3428 19.8578C10.3428 20.7021 11.0159 21.3866 11.8463 21.3866Z" fill="white"/>
<path d="M13.0827 24.4442C13.9131 24.4442 14.5862 23.7597 14.5862 22.9154C14.5862 22.0711 13.9131 21.3866 13.0827 21.3866C12.2523 21.3866 11.5791 22.0711 11.5791 22.9154C11.5791 23.7597 12.2523 24.4442 13.0827 24.4442Z" fill="white"/>
<path d="M132.072 21.0348L128.749 33.3122C128.749 37.4397 131.1 38.9177 134.831 38.9177C134.933 38.9177 136.058 38.8669 136.058 38.8669V35.8094H134.935C132.941 35.8094 132.072 34.8935 132.072 33.2614V14.7365H140.678V11.9546C139.353 11.9546 133.599 11.9546 132.222 11.9546C132.579 11.552 132.903 11.0678 133.217 10.6326C133.513 10.2209 133.793 9.79834 134.054 9.3631C134.421 8.74833 134.739 8.11179 134.981 7.43898C135.288 6.58663 135.459 5.71615 135.386 4.80396C135.293 3.65421 134.871 2.63865 134.138 1.75366C133.709 1.235 133.187 0.805198 132.58 0.522292C131.063 -0.183159 129.543 -0.194041 128.054 0.631102C127.727 0.812452 127.422 1.01738 127.146 1.27489C126.732 1.65936 126.384 2.08916 126.104 2.57699C125.66 3.34772 125.439 4.18012 125.405 5.0633C125.371 5.96279 125.58 6.82058 125.903 7.65297C126.256 8.56879 126.748 9.41388 127.296 10.2245C127.542 10.589 127.808 10.9408 128.079 11.2872C128.25 11.5067 128.439 11.7116 128.625 11.9564H120.131V14.7383H128.748V33.314L132.072 21.0348ZM132.193 11.9528C132.206 11.9256 132.211 11.9546 132.218 11.9528H132.193ZM128.575 7.40996C128.289 6.86047 128.048 6.29466 127.954 5.67988C127.852 5.0234 127.959 4.40318 128.316 3.83193C128.789 3.07751 129.466 2.66766 130.356 2.63865C130.856 2.62232 131.339 2.7402 131.744 3.03762C132.614 3.67597 132.998 4.54101 132.862 5.61641C132.78 6.25476 132.527 6.83871 132.233 7.40815C131.871 8.10997 131.437 8.76283 130.959 9.3903C130.784 9.62062 130.599 9.84005 130.401 10.0794C129.869 9.44652 129.393 8.80817 128.983 8.12267C128.842 7.88691 128.701 7.65297 128.575 7.40996Z" fill="white"/>
<path d="M97.4939 42.7895V49.8712H96.7466V42.7895H94.9434V42.1094H99.3167V42.7895H97.4921H97.4939Z" fill="white"/>
<path d="M101.323 46.2986C101.12 46.1281 100.918 46.0538 100.694 46.0538C100.128 46.0538 99.6591 46.6921 99.6591 47.4357V49.8712H98.9653V45.5333H99.6591V46.1281C99.9053 45.7038 100.31 45.4045 100.811 45.4045C101.163 45.4045 101.409 45.5007 101.675 45.7346L101.323 46.2986Z" fill="white"/>
<path d="M105.09 49.873V49.4577C104.707 49.7769 104.205 49.9999 103.597 49.9999C102.627 49.9999 102.008 49.436 102.008 48.5963C102.008 47.5753 102.925 47.0439 104.323 47.0439H105.103V46.8517C105.103 46.1717 104.666 46.0121 104.036 46.0121C103.503 46.0121 103.076 46.0973 102.713 46.2877L102.456 45.7564C102.85 45.5224 103.437 45.4045 103.981 45.4045C105.176 45.4045 105.784 45.8615 105.784 46.7121V49.8712H105.09V49.873ZM105.09 47.6279H104.503C103.34 47.6279 102.721 47.9035 102.721 48.5963C102.721 49.1168 103.201 49.3725 103.724 49.3725C104.246 49.3725 104.705 49.1603 105.09 48.8629V47.6297V47.6279Z" fill="white"/>
<path d="M110.008 49.873V47.1075C110.008 46.4909 109.656 46.0447 108.984 46.0447C108.172 46.0447 107.735 46.7574 107.735 47.3632V49.873H107.042V45.5351H107.735V46.1626C108.003 45.6947 108.515 45.4082 109.091 45.4082C110.072 45.4082 110.701 46.0357 110.701 46.9932V49.8749H110.008V49.873Z" fill="white"/>
<path d="M113.218 49.9891C112.642 49.9891 112.077 49.7878 111.682 49.4777L112.055 48.9463C112.396 49.2129 112.845 49.3616 113.197 49.3616C113.612 49.3616 114.03 49.1168 114.03 48.7341C114.03 48.2554 113.593 48.0958 113.07 47.9144C112.462 47.6914 111.779 47.394 111.779 46.5851C111.779 45.8615 112.472 45.4045 113.198 45.4045C113.678 45.4045 114.158 45.5224 114.595 45.8398L114.276 46.3711C113.935 46.1263 113.56 46.0193 113.198 46.0193C112.858 46.0193 112.472 46.1789 112.472 46.5616C112.472 46.9442 112.835 47.1038 113.368 47.2851C114.008 47.5191 114.734 47.8165 114.734 48.7106C114.734 49.445 114.019 49.9873 113.22 49.9873L113.218 49.9891Z" fill="white"/>
<path d="M115.81 49.873V42.1094H116.503V49.873H115.81Z" fill="white"/>
<path d="M120.611 49.873V49.4577C120.227 49.7769 119.726 49.9999 119.118 49.9999C118.148 49.9999 117.529 49.436 117.529 48.5963C117.529 47.5753 118.446 47.0439 119.844 47.0439H120.623V46.8517C120.623 46.1717 120.186 46.0121 119.557 46.0121C119.023 46.0121 118.597 46.0973 118.233 46.2877L117.976 45.7564C118.371 45.5224 118.957 45.4045 119.501 45.4045C120.696 45.4045 121.305 45.8615 121.305 46.7121V49.8712H120.611V49.873ZM120.611 47.6279H120.024C118.861 47.6279 118.242 47.9035 118.242 48.5963C118.242 49.1168 118.722 49.3725 119.245 49.3725C119.767 49.3725 120.226 49.1603 120.611 48.8629V47.6297V47.6279Z" fill="white"/>
<path d="M123.971 49.9039C123.192 49.9039 122.701 49.5956 122.701 48.7341V46.1717H122.061V45.5333H122.701V43.5022H123.395V45.5333H124.217V46.1717H123.395V48.7233C123.395 49.0642 123.577 49.2546 123.993 49.2546H124.228V49.893C124.228 49.893 123.993 49.9039 123.971 49.9039Z" fill="white"/>
<path d="M125.284 44.4271V43.4061H125.978V44.4271H125.284ZM125.284 49.873V45.5351H125.978V49.873H125.284Z" fill="white"/>
<path d="M129.274 49.9999C127.993 49.9999 127.012 49.0642 127.012 47.6914C127.012 46.4147 127.95 45.4045 129.263 45.4045C130.576 45.4045 131.546 46.3929 131.546 47.6696C131.546 48.9463 130.565 49.9981 129.274 49.9981V49.9999ZM129.263 46.0538C128.357 46.0538 127.727 46.7556 127.727 47.6914C127.727 48.6271 128.357 49.3616 129.263 49.3616C130.233 49.3616 130.831 48.6489 130.831 47.6914C130.831 46.7338 130.18 46.0538 129.263 46.0538Z" fill="white"/>
<path d="M135.546 49.873V47.1075C135.546 46.4909 135.195 46.0447 134.523 46.0447C133.711 46.0447 133.274 46.7574 133.274 47.3632V49.873H132.58V45.5351H133.274V46.1626C133.542 45.6947 134.054 45.4082 134.63 45.4082C135.611 45.4082 136.24 46.0357 136.24 46.9932V49.8749H135.546V49.873Z" fill="white"/>
<path d="M138.757 49.9891C138.181 49.9891 137.616 49.7878 137.221 49.4777L137.594 48.9463C137.935 49.2129 138.384 49.3616 138.736 49.3616C139.151 49.3616 139.569 49.1168 139.569 48.7341C139.569 48.2554 139.132 48.0958 138.609 47.9144C138.001 47.6914 137.318 47.394 137.318 46.5851C137.318 45.8615 138.012 45.4045 138.737 45.4045C139.217 45.4045 139.697 45.5224 140.136 45.8398L139.817 46.3711C139.476 46.1263 139.101 46.0193 138.739 46.0193C138.399 46.0193 138.013 46.1789 138.013 46.5616C138.013 46.9442 138.375 47.1038 138.909 47.2851C139.549 47.5191 140.275 47.8165 140.275 48.7106C140.275 49.445 139.56 49.9873 138.761 49.9873L138.757 49.9891Z" fill="white"/>
</svg>
