<svg width="171" height="61" viewBox="0 0 171 61" fill="none" xmlns="http://www.w3.org/2000/svg">
<path d="M49.8725 47.0487V44.9093C47.8746 46.553 45.2662 47.7039 42.1068 47.7039C37.0596 47.7039 33.8408 44.7982 33.8408 40.4681C33.8408 35.2036 38.6111 32.4631 45.8795 32.4631H49.9291V31.4775C49.9291 27.9678 47.6542 27.1474 44.3817 27.1474C41.6094 27.1474 39.3882 27.5861 37.5033 28.5718L36.1722 25.8313C38.2239 24.6234 41.2759 24.0223 44.1047 24.0223C50.3191 24.0223 53.4813 26.3811 53.4813 30.7653V47.0487H49.8754H49.8725ZM49.8725 35.4799H46.8205C40.7729 35.4799 37.557 36.9072 37.557 40.4709C37.557 43.1573 40.0523 44.4734 42.7709 44.4734C45.4895 44.4734 47.8746 43.3766 49.8725 41.8412V35.4799Z" fill="#5B812A"/>
<path d="M68.9564 28.6288C67.9023 27.7514 66.8482 27.3668 65.6839 27.3668C62.7421 27.3668 60.3033 30.6571 60.3033 34.4943V47.0487H56.6973V24.6776H60.3033V27.7485C61.5806 25.555 63.686 24.0195 66.2943 24.0195C68.1256 24.0195 69.4029 24.5124 70.7876 25.7202L68.9564 28.6259V28.6288Z" fill="#5B812A"/>
<path d="M69.9567 57.1389C68.849 57.1389 68.2922 57.0847 67.4049 56.8654L67.1816 53.7403C68.1255 53.9597 68.7359 54.0138 69.5131 53.9597C70.4004 53.9597 71.398 53.6862 71.398 52.259V24.6804H75.0039V52.5325C75.0039 55.931 72.4521 57.1389 69.9539 57.1389H69.9567ZM71.398 18.9772V13.7128H75.0039V18.9772H71.398Z" fill="#5B812A"/>
<path d="M93.0364 47.0487V44.9093C91.0384 46.553 88.43 47.7039 85.2706 47.7039C80.2234 47.7039 77.0046 44.7982 77.0046 40.4681C77.0046 35.2036 81.7749 32.4631 89.0433 32.4631H93.0929V31.4775C93.0929 27.9678 90.818 27.1474 87.5455 27.1474C84.7732 27.1474 82.552 27.5861 80.6671 28.5718L79.3361 25.8313C81.3877 24.6234 84.4398 24.0223 87.2686 24.0223C93.48 24.0223 96.6451 26.3811 96.6451 30.7653V47.0487H93.0392H93.0364ZM93.0364 35.4799H89.9843C83.9367 35.4799 80.7208 36.9072 80.7208 40.4709C80.7208 43.1573 83.2161 44.4734 85.9347 44.4734C88.6533 44.4734 91.0384 43.3766 93.0364 41.8412V35.4799Z" fill="#5B812A"/>
<path d="M129.096 47.0487V32.5173C129.096 29.2811 127.375 27.3098 124.546 27.3098C120.94 27.3098 118.111 30.1614 118.111 33.5058V47.0487H114.505V32.5173C114.505 29.2811 112.954 27.3098 109.845 27.3098C106.296 27.3098 103.464 30.2155 103.464 33.5599V47.0487H99.8583V24.6776H103.464V27.6944C104.795 25.555 107.457 24.0195 110.343 24.0195C114.059 24.0195 116.223 25.6091 117.331 28.0761C118.996 25.6091 122.212 24.0195 125.097 24.0195C130.478 24.0195 132.753 27.5833 132.753 32.0786V47.0458H129.093L129.096 47.0487Z" fill="#5B812A"/>
<path d="M150.291 47.0487V44.9093C148.293 46.553 145.684 47.7039 142.525 47.7039C137.475 47.7039 134.259 44.7982 134.259 40.4681C134.259 35.2036 139.029 32.4631 146.297 32.4631H150.347V31.4775C150.347 27.9678 148.072 27.1474 144.8 27.1474C142.025 27.1474 139.806 27.5861 137.921 28.5718L136.59 25.8313C138.642 24.6234 141.694 24.0223 144.523 24.0223C150.734 24.0223 153.899 26.3811 153.899 30.7653V47.0487H150.293H150.291ZM150.291 35.4799H147.239C141.191 35.4799 137.972 36.9072 137.972 40.4709C137.972 43.1573 140.47 44.4734 143.189 44.4734C145.907 44.4734 148.293 43.3766 150.291 41.8412V35.4799Z" fill="#5B812A"/>
<path d="M31.9333 43.2029C30.8453 43.6872 24.0969 46.5701 17.2891 43.22C12.4934 40.8613 10.3316 36.7192 9.53466 35.1382C7.38127 30.8679 7.46039 27.0193 7.61582 22.3445C7.74864 18.2737 8.4297 12.052 11.2189 4.74217H34.1545V0.514648H2.76646C2.01475 1.92477 1.26587 3.33489 0.51416 4.74502C3.06036 4.70798 5.60373 4.78205 8.14993 4.74502C5.03571 13.0719 3.94206 21.1281 4.54965 27.8596C4.95658 32.3635 6.10393 38.4854 11.1709 43.0149C15.1979 46.6129 19.8721 47.4133 21.1946 47.6213C25.9366 48.3734 29.729 47.2481 31.5066 46.5901C31.6479 45.462 31.792 44.331 31.9333 43.2029Z" fill="#5B812A"/>
<path d="M14.8532 26.1789C15.8583 26.1789 16.6731 25.3576 16.6731 24.3444C16.6731 23.3311 15.8583 22.5098 14.8532 22.5098C13.8481 22.5098 13.0333 23.3311 13.0333 24.3444C13.0333 25.3576 13.8481 26.1789 14.8532 26.1789Z" fill="#5B812A"/>
<path d="M16.3508 29.8481C17.3559 29.8481 18.1707 29.0268 18.1707 28.0135C18.1707 27.0003 17.3559 26.179 16.3508 26.179C15.3457 26.179 14.5309 27.0003 14.5309 28.0135C14.5309 29.0268 15.3457 29.8481 16.3508 29.8481Z" fill="#5B812A"/>
<path d="M160.368 25.7548L156.347 40.4885C156.347 45.4424 159.192 47.2144 163.708 47.2144C163.833 47.2144 165.192 47.1517 165.192 47.1517V43.4825H163.833C161.419 43.4825 160.368 42.3829 160.368 40.4258V18.2H170.784V14.8613C169.182 14.8613 162.216 14.8613 160.552 14.8613C160.984 14.377 161.377 13.7987 161.755 13.2745C162.114 12.7817 162.454 12.2746 162.767 11.7505C163.211 11.0127 163.595 10.2492 163.889 9.44015C164.262 8.41746 164.468 7.37197 164.381 6.27806C164.271 4.89642 163.756 3.68001 162.872 2.61744C162.352 1.99641 161.722 1.47794 160.987 1.14179C159.15 0.295718 157.31 0.281474 155.507 1.27283C155.112 1.48934 154.741 1.73433 154.408 2.04484C153.908 2.50633 153.487 3.02196 153.148 3.60879C152.611 4.53463 152.342 5.53169 152.303 6.59142C152.26 7.67109 152.515 8.69948 152.905 9.69939C153.331 10.799 153.928 11.8131 154.592 12.7846C154.891 13.2204 155.211 13.6449 155.541 14.0608C155.747 14.3229 155.976 14.5707 156.202 14.8641H145.922V18.2029H156.349V40.4942L160.368 25.7548ZM160.515 14.8584C160.532 14.8271 160.535 14.8584 160.546 14.8584H160.515ZM156.135 9.40597C155.79 8.74791 155.499 8.06991 155.383 7.33209C155.261 6.54299 155.389 5.79947 155.821 5.11293C156.392 4.20988 157.211 3.71705 158.291 3.68001C158.896 3.66007 159.481 3.80251 159.969 4.1586C161.024 4.92491 161.487 5.9647 161.323 7.25232C161.224 8.01863 160.916 8.71942 160.563 9.40312C160.125 10.2435 159.602 11.0269 159.023 11.7818C158.811 12.0581 158.585 12.3202 158.347 12.6108C157.706 11.8502 157.129 11.0867 156.632 10.2634C156.462 9.98141 156.29 9.69939 156.137 9.40882L156.135 9.40597Z" fill="#5B812A"/>
<path d="M118.516 51.8635V60.3613H117.611V51.8635H115.43V51.0459H120.723V51.8635H118.516Z" fill="#5B812A"/>
<path d="M123.153 56.0739C122.907 55.8688 122.661 55.7805 122.39 55.7805C121.706 55.7805 121.138 56.5468 121.138 57.4385V60.3613H120.299V55.1566H121.138V55.8717C121.435 55.3617 121.927 55.0028 122.531 55.0028C122.958 55.0028 123.255 55.1168 123.577 55.3988L123.15 56.0739H123.153Z" fill="#5B812A"/>
<path d="M127.709 60.3614V59.8628C127.242 60.2446 126.637 60.5123 125.9 60.5123C124.724 60.5123 123.975 59.8372 123.975 58.8287C123.975 57.6038 125.086 56.9657 126.776 56.9657H127.717V56.7349C127.717 55.9173 127.189 55.7265 126.426 55.7265C125.781 55.7265 125.264 55.829 124.823 56.0569L124.512 55.4188C124.99 55.1396 125.699 54.9972 126.358 54.9972C127.805 54.9972 128.539 55.547 128.539 56.5668V60.3557H127.7L127.709 60.3614ZM127.709 57.6693H126.999C125.592 57.6693 124.843 57.9998 124.843 58.8316C124.843 59.4555 125.425 59.7631 126.055 59.7631C126.686 59.7631 127.242 59.5067 127.709 59.1506V57.6722V57.6693Z" fill="#5B812A"/>
<path d="M133.663 60.3613V57.0453C133.663 56.3047 133.236 55.7691 132.422 55.7691C131.442 55.7691 130.913 56.6237 130.913 57.3502V60.3613H130.074V55.1566H130.913V55.9087C131.235 55.3475 131.854 55.0028 132.552 55.0028C133.739 55.0028 134.502 55.7549 134.502 56.9029V60.3613H133.663Z" fill="#5B812A"/>
<path d="M137.549 60.5009C136.851 60.5009 136.167 60.2587 135.689 59.8884L136.141 59.2503C136.554 59.5693 137.096 59.7488 137.523 59.7488C138.026 59.7488 138.529 59.4554 138.529 58.9967C138.529 58.4213 138.001 58.2304 137.368 58.0139C136.633 57.7461 135.805 57.39 135.805 56.4186C135.805 55.5526 136.644 55.0028 137.523 55.0028C138.105 55.0028 138.685 55.1424 139.213 55.527L138.826 56.1651C138.413 55.8717 137.961 55.7435 137.523 55.7435C137.11 55.7435 136.644 55.9343 136.644 56.393C136.644 56.8516 137.082 57.0425 137.729 57.259C138.504 57.541 139.383 57.8971 139.383 58.9682C139.383 59.8485 138.518 60.498 137.549 60.498V60.5009Z" fill="#5B812A"/>
<path d="M140.685 60.3613V51.0488H141.525V60.3613H140.685Z" fill="#5B812A"/>
<path d="M146.496 60.3614V59.8628C146.029 60.2446 145.424 60.5123 144.687 60.5123C143.511 60.5123 142.762 59.8372 142.762 58.8287C142.762 57.6038 143.873 56.9657 145.563 56.9657H146.504V56.7349C146.504 55.9173 145.976 55.7265 145.213 55.7265C144.568 55.7265 144.051 55.829 143.61 56.0569L143.299 55.4188C143.777 55.1396 144.486 54.9972 145.145 54.9972C146.592 54.9972 147.326 55.547 147.326 56.5668V60.3557H146.487L146.496 60.3614ZM146.496 57.6693H145.786C144.379 57.6693 143.63 57.9998 143.63 58.8316C143.63 59.4555 144.212 59.7631 144.842 59.7631C145.472 59.7631 146.029 59.5067 146.496 59.1506V57.6722V57.6693Z" fill="#5B812A"/>
<path d="M150.565 60.398C149.624 60.398 149.028 60.0276 149.028 58.9935V55.9198H148.253V55.1534H149.028V52.7178H149.867V55.1534H150.862V55.9198H149.867V58.9821C149.867 59.3895 150.087 59.6203 150.59 59.6203H150.873V60.3866C150.873 60.3866 150.59 60.398 150.562 60.398H150.565Z" fill="#5B812A"/>
<path d="M152.153 53.8294V52.6045H152.992V53.8294H152.153ZM152.153 60.3616V55.157H152.992V60.3616H152.153Z" fill="#5B812A"/>
<path d="M156.98 60.5151C155.431 60.5151 154.244 59.3927 154.244 57.7461C154.244 56.2164 155.38 55.0028 156.969 55.0028C158.557 55.0028 159.732 56.1907 159.732 57.7205C159.732 59.2503 158.546 60.5151 156.983 60.5151H156.98ZM156.969 55.7805C155.872 55.7805 155.109 56.6237 155.109 57.7461C155.109 58.8685 155.872 59.7488 156.969 59.7488C158.144 59.7488 158.868 58.8942 158.868 57.7461C158.868 56.5981 158.079 55.7805 156.969 55.7805Z" fill="#5B812A"/>
<path d="M164.573 60.3613V57.0453C164.573 56.3047 164.147 55.7691 163.333 55.7691C162.352 55.7691 161.824 56.6237 161.824 57.3502V60.3613H160.984V55.1566H161.824V55.9087C162.146 55.3475 162.765 55.0028 163.463 55.0028C164.65 55.0028 165.413 55.7549 165.413 56.9029V60.3613H164.573Z" fill="#5B812A"/>
<path d="M168.459 60.5009C167.761 60.5009 167.077 60.2587 166.599 59.8884L167.052 59.2503C167.464 59.5693 168.007 59.7488 168.433 59.7488C168.937 59.7488 169.44 59.4554 169.44 58.9967C169.44 58.4213 168.911 58.2304 168.278 58.0139C167.543 57.7461 166.715 57.39 166.715 56.4186C166.715 55.5526 167.555 55.0028 168.433 55.0028C169.016 55.0028 169.595 55.1424 170.123 55.527L169.736 56.1651C169.324 55.8717 168.872 55.7435 168.433 55.7435C168.021 55.7435 167.555 55.9343 167.555 56.393C167.555 56.8516 167.993 57.0425 168.64 57.259C169.414 57.541 170.293 57.8971 170.293 58.9682C170.293 59.8485 169.428 60.498 168.459 60.498V60.5009Z" fill="#5B812A"/>
</svg>
