<svg width="72" height="88" viewBox="0 0 72 88" fill="none" xmlns="http://www.w3.org/2000/svg">
<path d="M7.23334 0.249992C3.78414 0.253898 0.987237 3.05079 0.983337 6.49999V81.5C0.987244 84.9492 3.78414 87.7461 7.23334 87.75H65.5693C69.0185 87.7461 71.8154 84.9492 71.8193 81.5V16.918H61.4013C59.1005 16.9141 57.2372 15.0508 57.2333 12.75V0.249992H7.23334ZM15.5653 12.75H44.7333C45.8856 12.75 46.8192 13.6836 46.8192 14.832C46.8192 15.9843 45.8856 16.9179 44.7333 16.9179H15.5693C14.417 16.9179 13.4834 15.9843 13.4834 14.832C13.4834 13.6836 14.417 12.75 15.5693 12.75H15.5653ZM15.5653 21.082H44.7333C45.8856 21.082 46.8192 22.0156 46.8192 23.1679C46.8192 24.3163 45.8856 25.2499 44.7333 25.2499H15.5693C14.417 25.2499 13.4834 24.3163 13.4834 23.1679C13.4834 22.0156 14.417 21.082 15.5693 21.082H15.5653ZM15.5653 29.414H23.8973L23.9012 29.4179C25.0535 29.4179 25.9832 30.3476 25.9832 31.4999C25.9832 32.6522 25.0536 33.5819 23.9012 33.5819H15.5692C14.4169 33.5819 13.4833 32.6522 13.4833 31.4999C13.4833 30.3476 14.4169 29.4179 15.5692 29.4179L15.5653 29.414ZM15.5653 37.746H23.8973L23.9012 37.7499C25.0535 37.7499 25.9832 38.6835 25.9832 39.8319C25.9832 40.9842 25.0536 41.9178 23.9012 41.9178H15.5692C14.4169 41.9178 13.4833 40.9842 13.4833 39.8319C13.4833 38.6835 14.4169 37.7499 15.5692 37.7499L15.5653 37.746ZM15.5653 46.078H23.8973L23.9012 46.0819C25.0535 46.0819 25.9832 47.0155 25.9832 48.1678C25.9832 49.3162 25.0536 50.2498 23.9012 50.2498H15.5692C14.4169 50.2498 13.4833 49.3162 13.4833 48.1678C13.4833 47.0155 14.4169 46.0819 15.5692 46.0819L15.5653 46.078ZM15.5653 54.41H23.8973L23.9012 54.4178C25.0535 54.4178 25.9832 55.3475 25.9832 56.4998C25.9832 57.6521 25.0536 58.5818 23.9012 58.5818H15.5692C14.4169 58.5818 13.4833 57.6521 13.4833 56.4998C13.4833 55.3475 14.4169 54.4178 15.5692 54.4178L15.5653 54.41ZM57.2333 75.25H15.5693C14.417 75.25 13.4834 74.3164 13.4834 73.168C13.4834 72.0157 14.417 71.0821 15.5693 71.0821H57.2333C58.3856 71.0821 59.3192 72.0157 59.3192 73.168C59.3192 74.3164 58.3856 75.25 57.2333 75.25ZM57.2333 66.918H15.5693C14.417 66.918 13.4834 65.9844 13.4834 64.8321C13.4834 63.6837 14.417 62.7501 15.5693 62.7501H57.2333C58.3856 62.7501 59.3192 63.6837 59.3192 64.8321C59.3192 65.9844 58.3856 66.918 57.2333 66.918ZM60.3583 44C60.3583 48.1445 58.7138 52.1172 55.7841 55.047C52.8544 57.9806 48.8779 59.6251 44.7331 59.6251C40.5883 59.6251 36.6159 57.9806 33.6861 55.047C30.7564 52.1173 29.108 48.1447 29.108 44C29.108 39.8553 30.7564 35.8828 33.6861 32.953C36.6158 30.0194 40.5884 28.3749 44.7331 28.3749C45.8854 28.3749 46.819 29.3085 46.819 30.4569C46.819 31.6092 45.8854 32.5428 44.7331 32.5428C40.1003 32.5428 35.9206 35.3319 34.1471 39.6131C32.3737 43.8983 33.3542 48.824 36.6315 52.1011C39.9088 55.3784 44.8385 56.3589 49.1195 54.5855C53.4007 52.8121 56.1937 48.6324 56.1937 43.9995C56.1898 42.2183 55.768 40.4643 54.9554 38.8784L45.2952 49.2884V49.2845C44.553 50.0853 43.3186 50.1751 42.4671 49.4954L37.6273 45.6282C36.7328 44.9056 36.5882 43.597 37.307 42.6985C38.0219 41.8001 39.3343 41.6555 40.2328 42.3704L43.5609 45.0306L53.7329 34.0696C53.7681 34.0305 53.815 34.0188 53.8501 33.9837C53.8853 33.9485 53.9009 33.9055 53.94 33.8743C54.0142 33.8274 54.0923 33.7844 54.1743 33.7493C54.8657 33.2805 55.7837 33.3079 56.4438 33.8196C56.5259 33.8626 56.604 33.9094 56.6782 33.9602C56.7173 33.9954 56.729 34.0423 56.7642 34.0813C56.7954 34.1165 56.8423 34.1321 56.8735 34.1712C59.1274 36.9485 60.3622 40.4219 60.3583 44Z" fill="#5C7A30"/>
<path d="M62.1674 2.49999C61.933 2.23046 61.6791 1.98437 61.4017 1.76171V12.7497H70.6556C70.558 12.613 70.4798 12.4685 70.3705 12.3396L62.1674 2.49999Z" fill="#5C7A30"/>
</svg>
