<svg width="92" height="92" viewBox="0 0 92 92" fill="none" xmlns="http://www.w3.org/2000/svg">
<g clip-path="url(#clip0_282_1631)">
<path d="M24.69 5.42H23.44V0H20.69V5.42H19.44V12.44H24.69V5.42Z" fill="#5C7A30"/>
<path d="M36.62 5.42H35.38V0H32.62V5.42H31.38V12.44H36.62V5.42Z" fill="#5C7A30"/>
<path d="M48.56 5.42H47.31V0H44.56V5.42H43.31V12.44H48.56V5.42Z" fill="#5C7A30"/>
<path d="M60.5 5.42H59.25V0H56.5V5.42H55.25V12.44H60.5V5.42Z" fill="#5C7A30"/>
<path d="M72.44 5.42H71.19V0H68.44V5.42H67.19V12.44H72.44V5.42Z" fill="#5C7A30"/>
<path d="M19.44 86.46H20.69V91.88H23.44V86.46H24.69V79.44H19.44V86.46Z" fill="#5C7A30"/>
<path d="M31.38 86.46H32.62V91.88H35.38V86.46H36.62V79.44H31.38V86.46Z" fill="#5C7A30"/>
<path d="M43.31 86.46H44.56V91.88H47.31V86.46H48.56V79.44H43.31V86.46Z" fill="#5C7A30"/>
<path d="M55.25 86.46H56.5V91.88H59.25V86.46H60.5V79.44H55.25V86.46Z" fill="#5C7A30"/>
<path d="M67.19 86.46H68.44V91.88H71.19V86.46H72.44V79.44H67.19V86.46Z" fill="#5C7A30"/>
<path d="M5.42 68.44H0V71.19H5.42V72.44H12.44V67.19H5.42V68.44Z" fill="#5C7A30"/>
<path d="M5.42 56.5H0V59.25H5.42V60.5H12.44V55.25H5.42V56.5Z" fill="#5C7A30"/>
<path d="M5.42 44.56H0V47.31H5.42V48.56H12.44V43.31H5.42V44.56Z" fill="#5C7A30"/>
<path d="M5.42 32.62H0V35.38H5.42V36.62H12.44V31.38H5.42V32.62Z" fill="#5C7A30"/>
<path d="M5.42 20.69H0V23.44H5.42V24.69H12.44V19.44H5.42V20.69Z" fill="#5C7A30"/>
<path d="M86.46 67.19H79.44V72.44H86.46V71.19H91.88V68.44H86.46V67.19Z" fill="#5C7A30"/>
<path d="M86.46 55.25H79.44V60.5H86.46V59.25H91.88V56.5H86.46V55.25Z" fill="#5C7A30"/>
<path d="M86.46 43.31H79.44V48.56H86.46V47.31H91.88V44.56H86.46V43.31Z" fill="#5C7A30"/>
<path d="M86.46 31.38H79.44V36.62H86.46V35.38H91.88V32.62H86.46V31.38Z" fill="#5C7A30"/>
<path d="M86.46 20.69V19.44H79.44V24.69H86.46V23.44H91.88V20.69H86.46Z" fill="#5C7A30"/>
<path d="M74.44 14.44H17.44C15.78 14.44 14.44 15.78 14.44 17.44V74.44C14.44 76.1 15.78 77.44 17.44 77.44H74.44C76.1 77.44 77.44 76.1 77.44 74.44V17.44C77.44 15.78 76.1 14.44 74.44 14.44ZM23.72 49.72C22.15 49.72 20.87 48.38 20.87 46.74V33.35C20.87 31.72 22.15 30.38 23.72 30.38H50.86C52.44 30.38 53.72 31.72 53.72 33.35V46.74C53.72 48.38 52.44 49.72 50.86 49.72H31.58L23.72 54.93L25.15 49.72H23.72ZM71.01 53.32C71.01 54.96 69.73 56.29 68.16 56.29H66.73L68.16 61.5L60.3 56.29H41.02C39.44 56.29 38.16 54.96 38.16 53.32V51.72H50.86C53.54 51.72 55.72 49.49 55.72 46.74V36.95H68.16C69.73 36.95 71.01 38.29 71.01 39.93V53.32Z" fill="#5C7A30"/>
</g>
<defs>
<clipPath id="clip0_282_1631">
<rect width="91.88" height="91.88" fill="white"/>
</clipPath>
</defs>
</svg>
