<svg width="101" height="102" viewBox="0 0 101 102" fill="none" xmlns="http://www.w3.org/2000/svg">
<g clip-path="url(#clip0_259_660)">
<path d="M68.4239 64.6586L63.553 78.6873H73.3913L68.5184 64.6586H68.4239Z" fill="#5C7A30"/>
<path d="M63.0157 13.5848C61.8053 8.11737 56.5053 3.10854 51.0243 2.04577C47.6845 1.37858 38.3676 0.553943 32.2056 0.620859C26.0436 0.553943 16.7268 1.37858 13.387 2.04577C7.90589 3.10854 2.60589 8.11737 1.39553 13.5848C0.706707 16.905 0.0296917 21.4198 0.0178833 27.5839C0.0277236 33.748 0.704739 38.2628 1.39553 41.583C2.60589 47.0504 7.90589 52.0593 13.387 53.122C15.1897 53.4822 18.7362 53.8896 22.5877 54.175C23.0246 54.8599 23.4969 55.59 24.0086 56.3635C26.0515 59.4574 27.6161 61.6144 28.8009 63.118C30.7729 65.6175 33.6423 65.6175 35.6143 63.118C36.7991 61.6164 38.3617 59.4593 40.4065 56.3635C40.9182 55.59 41.3906 54.8599 41.8275 54.175C45.679 53.8876 49.2255 53.4822 51.0282 53.122C56.5093 52.0593 61.8093 47.0504 63.0196 41.583C63.7085 38.2628 64.3855 33.748 64.3973 27.5839C64.3874 21.4198 63.7104 16.903 63.0196 13.5848H63.0157ZM50.6661 18.2098H45.002C42.7505 23.7697 39.5091 28.8199 35.4785 33.0789C35.636 33.2127 35.7934 33.3485 35.9548 33.4784L39.6351 36.5053L46.5095 42.1577L43.6421 45.6334L33.0873 36.954C32.7901 36.71 32.4969 36.462 32.2056 36.2101C31.9143 36.462 31.6231 36.71 31.3259 36.954L20.7711 45.6334L17.9037 42.1577L28.4584 33.4784C28.6178 33.3465 28.7772 33.2127 28.9347 33.0789C25.7818 29.7488 23.1131 25.9346 21.0231 21.7721H26.1341C27.8345 24.7577 29.8754 27.513 32.2056 29.9771C35.4372 26.5605 38.1098 22.579 40.0956 18.2078H13.7451V13.7048H29.9502V9.34941H34.4591V13.7048H50.6641V18.2078H50.6661V18.2098Z" fill="#5C7A30"/>
<path d="M99.4053 60.4173C98.1949 54.95 92.8949 49.9411 87.4138 48.8783C84.074 48.2112 74.7572 47.3865 68.5952 47.4534C67.9654 47.4456 67.3022 47.4495 66.6173 47.4593C65.5585 49.4471 64.1336 51.3247 62.4174 52.9681C59.4358 55.8218 55.7673 57.788 52.089 58.5043C50.5067 58.8192 47.9462 59.146 44.9626 59.4215C43.0635 62.2969 41.367 64.6822 39.9244 66.5145C38.9581 67.7407 37.8225 68.6991 36.5787 69.3703C36.4763 70.9172 36.4134 72.592 36.4094 74.4165C36.4193 80.5806 37.0963 85.0954 37.7871 88.4156C38.9974 93.883 44.2974 98.8918 49.7785 99.9546C53.1183 100.622 62.4351 101.446 68.5971 101.38C74.7592 101.448 84.076 100.622 87.4158 99.9546C92.8969 98.8918 98.1969 93.883 99.4072 88.4156C100.096 85.0954 100.773 80.5806 100.785 74.4165C100.775 68.2524 100.098 63.7375 99.4072 60.4173H99.4053ZM77.2173 89.5965L75.2846 83.95H61.9018L59.9691 89.5965H54.0315L65.9048 56.6583H71.3229L83.149 89.5965H77.2114H77.2173Z" fill="#5C7A30"/>
<path d="M96.3902 27.4614C95.3117 26.3829 93.564 26.3829 92.4855 27.4614L89.0591 30.8879H89.0532V22.6022C89.0532 16.8415 84.3673 12.1555 78.6067 12.1555H73.6393C72.118 12.1555 70.884 13.3895 70.884 14.9108C70.884 16.4322 72.118 17.6662 73.6393 17.6662H78.6067C81.3286 17.6662 83.5426 19.8803 83.5426 22.6022V30.7639H83.5367L80.1103 27.3374C79.0318 26.2589 77.2842 26.2589 76.2057 27.3374C75.1272 28.416 75.1272 30.1636 76.2057 31.2422L82.5744 37.611C83.5859 38.6226 84.9301 39.1795 86.3589 39.1795C87.7878 39.1795 89.1339 38.6226 90.1435 37.611L96.3902 31.3642C96.9294 30.8249 97.1991 30.1184 97.1991 29.4118C97.1991 28.7053 96.9294 27.9987 96.3902 27.4595V27.4614Z" fill="#5C7A30"/>
<path d="M27.1615 84.3318H22.1941C19.4722 84.3318 17.2582 82.1177 17.2582 79.3958V71.2341H17.2641L20.6905 74.6605C21.769 75.7391 23.5166 75.7391 24.5951 74.6605C25.6736 73.582 25.6736 71.8343 24.5951 70.7558L18.2264 64.387C17.2149 63.3754 15.8707 62.8185 14.4419 62.8185C13.013 62.8185 11.6669 63.3754 10.6573 64.387L4.41062 70.6338C3.87137 71.1731 3.60175 71.8796 3.60175 72.5862C3.60175 73.2927 3.87137 73.9993 4.41062 74.5385C5.48912 75.617 7.23676 75.617 8.31526 74.5385L11.7417 71.112H11.7476V79.3978C11.7476 85.1584 16.4335 89.8445 22.1941 89.8445H27.1615C28.6828 89.8445 29.9168 88.6105 29.9168 87.0891C29.9168 85.5678 28.6828 84.3338 27.1615 84.3338V84.3318Z" fill="#5C7A30"/>
</g>
<defs>
<clipPath id="clip0_259_660">
<rect width="100.767" height="100.767" fill="white" transform="translate(0.0178833 0.616486)"/>
</clipPath>
</defs>
</svg>
