<svg width="81" height="81" viewBox="0 0 81 81" fill="none" xmlns="http://www.w3.org/2000/svg">
<path d="M52.6173 0.759888H6.55644C3.20529 0.759888 0.491211 3.47397 0.491211 6.82512V35.9121C0.491211 39.2545 3.20529 41.9773 6.55644 41.9773H10.1956V51.6729C10.1956 52.1529 10.4836 52.6067 10.9461 52.79C11.0945 52.8598 11.2515 52.886 11.4086 52.886C11.7228 52.886 12.037 52.7638 12.2639 52.5369L19.8825 44.9183V34.7165C19.8825 34.3063 19.9087 33.9049 19.9785 33.5034H19.8825C19.2105 33.5034 18.6695 32.9624 18.6695 32.2904V25.0208C18.6695 24.3488 19.2105 23.8078 19.8825 23.8078H27.1521C27.824 23.8078 28.3651 24.3488 28.3651 25.0208V26.2339H30.7912V25.0208C30.7912 24.3488 31.3323 23.8078 32.0042 23.8078H39.2738C39.9458 23.8078 40.4868 24.3488 40.4868 25.0208V26.2339H42.9129V25.0208C42.9129 24.3488 43.454 23.8078 44.126 23.8078H51.3955C52.0675 23.8078 52.6086 24.3488 52.6086 25.0208V26.2339H58.6738V6.82512C58.6738 3.4827 55.9597 0.759888 52.6086 0.759888H52.6173ZM16.2521 32.2729C16.2521 32.9449 15.711 33.486 15.039 33.486H7.76949C7.09752 33.486 6.55644 32.9449 6.55644 32.2729V25.0034C6.55644 24.3314 7.09752 23.7903 7.76949 23.7903H15.039C15.711 23.7903 16.2521 24.3314 16.2521 25.0034V32.2729ZM16.2521 17.7338C16.2521 18.4058 15.711 18.9469 15.039 18.9469H7.76949C7.09752 18.9469 6.55644 18.4058 6.55644 17.7338V10.4643C6.55644 9.79229 7.09752 9.25121 7.76949 9.25121H15.039C15.711 9.25121 16.2521 9.79229 16.2521 10.4643V17.7338ZM28.3738 17.7338C28.3738 18.4058 27.8328 18.9469 27.1608 18.9469H19.8912C19.2193 18.9469 18.6782 18.4058 18.6782 17.7338V10.4643C18.6782 9.79229 19.2193 9.25121 19.8912 9.25121H27.1608C27.8328 9.25121 28.3738 9.79229 28.3738 10.4643V17.7338ZM40.4956 17.7338C40.4956 18.4058 39.9545 18.9469 39.2825 18.9469H32.013C31.341 18.9469 30.7999 18.4058 30.7999 17.7338V10.4643C30.7999 9.79229 31.341 9.25121 32.013 9.25121H39.2825C39.9545 9.25121 40.4956 9.79229 40.4956 10.4643V17.7338ZM52.6173 17.7338C52.6173 18.4058 52.0762 18.9469 51.4043 18.9469H44.1347C43.4627 18.9469 42.9217 18.4058 42.9217 17.7338V10.4643C42.9217 9.79229 43.4627 9.25121 44.1347 9.25121H51.4043C52.0762 9.25121 52.6173 9.79229 52.6173 10.4643V17.7338Z" fill="#5C7A30"/>
<path d="M8.98242 11.6686H13.8259V16.512H8.98242V11.6686Z" fill="#5C7A30"/>
<path d="M21.0955 11.6686H25.9389V16.512H21.0955V11.6686Z" fill="#5C7A30"/>
<path d="M33.2173 11.6686H38.0607V16.512H33.2173V11.6686Z" fill="#5C7A30"/>
<path d="M45.3391 11.6686H50.1826V16.512H45.3391V11.6686Z" fill="#5C7A30"/>
<path d="M8.98242 26.2164H13.8259V31.0599H8.98242V26.2164Z" fill="#5C7A30"/>
<path d="M25.9477 26.2164V26.5655C23.8969 27.1851 22.1777 28.5465 21.1042 30.3356V26.2164H25.9477Z" fill="#5C7A30"/>
<path d="M74.4347 28.6425H28.3738C25.0314 28.6425 22.3086 31.3565 22.3086 34.7077V63.7946C22.3086 67.1371 25.0227 69.8599 28.3738 69.8599H56.6666C57.6353 69.8599 58.5604 70.2351 59.2411 70.9246L68.736 80.4195C68.9716 80.6551 69.2771 80.7686 69.5912 80.7686C69.7483 80.7686 69.9054 80.7424 70.0538 80.6726C70.5163 80.4893 70.8043 80.0442 70.8043 79.5555V69.8599H74.4434C77.7858 69.8599 80.5087 67.1458 80.5087 63.7946V34.7077C80.5087 31.3653 77.7946 28.6425 74.4434 28.6425H74.4347ZM69.5825 61.3685C66.9033 61.3685 64.7391 59.2043 64.7391 56.5251C64.7391 53.8459 66.9033 51.6816 69.5825 51.6816C72.2617 51.6816 74.426 53.8459 74.426 56.5251C74.426 59.2043 72.2617 61.3685 69.5825 61.3685ZM57.4608 61.3685C54.7816 61.3685 52.6173 59.2043 52.6173 56.5251C52.6173 53.8459 54.7816 51.6816 57.4608 51.6816C60.1399 51.6816 62.3042 53.8459 62.3042 56.5251C62.3042 59.2043 60.1399 61.3685 57.4608 61.3685ZM74.4347 41.9772C74.4347 44.6564 72.2704 46.8207 69.5912 46.8207C66.9121 46.8207 64.7478 44.6564 64.7478 41.9772C64.7478 39.2981 66.9121 37.1338 69.5912 37.1338C72.2704 37.1338 74.4347 39.2981 74.4347 41.9772ZM62.3042 41.9772C62.3042 44.6564 60.1399 46.8207 57.4608 46.8207C54.7816 46.8207 52.6173 44.6564 52.6173 41.9772C52.6173 39.2981 54.7816 37.1338 57.4608 37.1338C60.1399 37.1338 62.3042 39.2981 62.3042 41.9772ZM45.339 46.8207C42.6599 46.8207 40.4956 44.6564 40.4956 41.9772C40.4956 39.2981 42.6599 37.1338 45.339 37.1338C48.0182 37.1338 50.1825 39.2981 50.1825 41.9772C50.1825 44.6564 48.0182 46.8207 45.339 46.8207ZM50.1825 56.5164C50.1825 59.1955 48.0182 61.3598 45.339 61.3598C42.6599 61.3598 40.4956 59.1955 40.4956 56.5164C40.4956 53.8372 42.6599 51.6729 45.339 51.6729C48.0182 51.6729 50.1825 53.8372 50.1825 56.5164ZM33.2173 37.1251C35.8965 37.1251 38.0607 39.2893 38.0607 41.9685C38.0607 44.6477 35.8965 46.812 33.2173 46.812C30.5381 46.812 28.3738 44.6477 28.3738 41.9685C28.3738 39.2893 30.5381 37.1251 33.2173 37.1251ZM33.2173 51.6729C35.8965 51.6729 38.0607 53.8372 38.0607 56.5164C38.0607 59.1955 35.8965 61.3598 33.2173 61.3598C30.5381 61.3598 28.3738 59.1955 28.3738 56.5164C28.3738 53.8372 30.5381 51.6729 33.2173 51.6729Z" fill="#5C7A30"/>
<path d="M72 41.9772C72 45.2062 67.1565 45.2062 67.1565 41.9772C67.1565 38.7483 72 38.7395 72 41.9772Z" fill="#5C7A30"/>
<path d="M59.8869 41.9772C59.8869 45.2062 55.0435 45.2062 55.0435 41.9772C55.0435 38.7483 59.8869 38.7395 59.8869 41.9772Z" fill="#5C7A30"/>
<path d="M47.7651 41.9772C47.7651 45.2062 42.9216 45.2062 42.9216 41.9772C42.9216 38.7483 47.7651 38.7395 47.7651 41.9772Z" fill="#5C7A30"/>
<path d="M35.6433 41.9772C35.6433 45.2062 30.7998 45.2062 30.7998 41.9772C30.7998 38.7483 35.6433 38.7395 35.6433 41.9772Z" fill="#5C7A30"/>
<path d="M72 56.5165C72 59.7454 67.1565 59.7454 67.1565 56.5165C67.1565 53.2875 72 53.2875 72 56.5165Z" fill="#5C7A30"/>
<path d="M59.8869 56.5165C59.8869 59.7454 55.0435 59.7454 55.0435 56.5165C55.0435 53.2875 59.8869 53.2875 59.8869 56.5165Z" fill="#5C7A30"/>
<path d="M47.7651 56.5165C47.7651 59.7454 42.9216 59.7454 42.9216 56.5165C42.9216 53.2875 47.7651 53.2875 47.7651 56.5165Z" fill="#5C7A30"/>
<path d="M35.6433 56.5165C35.6433 59.7454 30.7998 59.7454 30.7998 56.5165C30.7998 53.2875 35.6433 53.2875 35.6433 56.5165Z" fill="#5C7A30"/>
</svg>
