<svg width="69" height="81" viewBox="0 0 69 81" fill="none" xmlns="http://www.w3.org/2000/svg">
<path d="M67.0707 51.5295H35.4804V48.8368C35.4804 47.2564 34.1926 45.9685 32.6122 45.9685H14.6317C14.1243 45.9685 13.7146 45.5588 13.7146 45.0515V42.5832L17.9878 36.4076H54.2609C55.9097 36.4076 57.2561 35.0612 57.2561 33.4124V3.75391C57.2561 2.10513 55.9097 0.758789 54.2609 0.758789H14.7487C13.1 0.758789 11.7536 2.10513 11.7536 3.75391V45.0612C11.7536 46.6417 13.0414 47.9295 14.6219 47.9295H32.6024C33.1097 47.9295 33.5195 48.3393 33.5195 48.8466V51.5393H1.92922C1.39264 51.5393 0.953613 51.9783 0.953613 52.5149V79.7929C0.953613 80.3295 1.39264 80.7685 1.92922 80.7685H62.017C65.3439 80.7685 68.0463 78.0661 68.0463 74.7393V52.5246C68.0463 51.9881 67.6073 51.549 67.0707 51.549V51.5295ZM44.7878 9.55879H45.4707C46.0073 9.55879 46.4463 9.99781 46.4463 10.5344C46.4463 11.071 46.0073 11.51 45.4707 11.51H44.7878C44.2512 11.51 43.8122 11.071 43.8122 10.5344C43.8122 9.99781 44.2512 9.55879 44.7878 9.55879ZM23.5292 9.55879H39.4902C40.0268 9.55879 40.4658 9.99781 40.4658 10.5344C40.4658 11.071 40.0268 11.51 39.4902 11.51H23.5292C22.9926 11.51 22.5536 11.071 22.5536 10.5344C22.5536 9.99781 22.9926 9.55879 23.5292 9.55879ZM23.5292 17.6076H45.4609C45.9975 17.6076 46.4365 18.0466 46.4365 18.5832C46.4365 19.1198 45.9975 19.5588 45.4609 19.5588H23.5292C22.9926 19.5588 22.5536 19.1198 22.5536 18.5832C22.5536 18.0466 22.9926 17.6076 23.5292 17.6076ZM23.5292 25.6564H45.4609C45.9975 25.6564 46.4365 26.0954 46.4365 26.632C46.4365 27.1685 45.9975 27.6076 45.4609 27.6076H23.5292C22.9926 27.6076 22.5536 27.1685 22.5536 26.632C22.5536 26.0954 22.9926 25.6564 23.5292 25.6564ZM10.3195 74.271H9.34386C8.80727 74.271 8.36825 73.832 8.36825 73.2954C8.36825 72.7588 8.80727 72.3198 9.34386 72.3198H10.3195C10.8561 72.3198 11.2951 72.7588 11.2951 73.2954C11.2951 73.832 10.8561 74.271 10.3195 74.271ZM10.3195 67.1198H9.34386C8.80727 67.1198 8.36825 66.6807 8.36825 66.1441C8.36825 65.6076 8.80727 65.1685 9.34386 65.1685H10.3195C10.8561 65.1685 11.2951 65.6076 11.2951 66.1441C11.2951 66.6807 10.8561 67.1198 10.3195 67.1198ZM10.3195 59.9685H9.34386C8.80727 59.9685 8.36825 59.5295 8.36825 58.9929C8.36825 58.4563 8.80727 58.0173 9.34386 58.0173H10.3195C10.8561 58.0173 11.2951 58.4563 11.2951 58.9929C11.2951 59.5295 10.8561 59.9685 10.3195 59.9685ZM18.6902 74.271H16.8268C16.2902 74.271 15.8512 73.832 15.8512 73.2954C15.8512 72.7588 16.2902 72.3198 16.8268 72.3198H18.6902C19.2268 72.3198 19.6658 72.7588 19.6658 73.2954C19.6658 73.832 19.2268 74.271 18.6902 74.271ZM18.6902 67.1198H16.8268C16.2902 67.1198 15.8512 66.6807 15.8512 66.1441C15.8512 65.6076 16.2902 65.1685 16.8268 65.1685H18.6902C19.2268 65.1685 19.6658 65.6076 19.6658 66.1441C19.6658 66.6807 19.2268 67.1198 18.6902 67.1198ZM18.6902 59.9685H16.8268C16.2902 59.9685 15.8512 59.5295 15.8512 58.9929C15.8512 58.4563 16.2902 58.0173 16.8268 58.0173H18.6902C19.2268 58.0173 19.6658 58.4563 19.6658 58.9929C19.6658 59.5295 19.2268 59.9685 18.6902 59.9685ZM27.0609 74.271H25.1975C24.6609 74.271 24.2219 73.832 24.2219 73.2954C24.2219 72.7588 24.6609 72.3198 25.1975 72.3198H27.0609C27.5975 72.3198 28.0365 72.7588 28.0365 73.2954C28.0365 73.832 27.5975 74.271 27.0609 74.271ZM27.0609 67.1198H25.1975C24.6609 67.1198 24.2219 66.6807 24.2219 66.1441C24.2219 65.6076 24.6609 65.1685 25.1975 65.1685H27.0609C27.5975 65.1685 28.0365 65.6076 28.0365 66.1441C28.0365 66.6807 27.5975 67.1198 27.0609 67.1198ZM27.0609 59.9685H25.1975C24.6609 59.9685 24.2219 59.5295 24.2219 58.9929C24.2219 58.4563 24.6609 58.0173 25.1975 58.0173H27.0609C27.5975 58.0173 28.0365 58.4563 28.0365 58.9929C28.0365 59.5295 27.5975 59.9685 27.0609 59.9685ZM35.4317 74.271H33.5682C33.0317 74.271 32.5926 73.832 32.5926 73.2954C32.5926 72.7588 33.0317 72.3198 33.5682 72.3198H35.4317C35.9683 72.3198 36.4073 72.7588 36.4073 73.2954C36.4073 73.832 35.9683 74.271 35.4317 74.271ZM35.4317 67.1198H33.5682C33.0317 67.1198 32.5926 66.6807 32.5926 66.1441C32.5926 65.6076 33.0317 65.1685 33.5682 65.1685H35.4317C35.9683 65.1685 36.4073 65.6076 36.4073 66.1441C36.4073 66.6807 35.9683 67.1198 35.4317 67.1198ZM35.4317 59.9685H33.5682C33.0317 59.9685 32.5926 59.5295 32.5926 58.9929C32.5926 58.4563 33.0317 58.0173 33.5682 58.0173H35.4317C35.9683 58.0173 36.4073 58.4563 36.4073 58.9929C36.4073 59.5295 35.9683 59.9685 35.4317 59.9685ZM43.8024 74.271H41.939C41.4024 74.271 40.9634 73.832 40.9634 73.2954C40.9634 72.7588 41.4024 72.3198 41.939 72.3198H43.8024C44.339 72.3198 44.778 72.7588 44.778 73.2954C44.778 73.832 44.339 74.271 43.8024 74.271ZM43.8024 67.1198H41.939C41.4024 67.1198 40.9634 66.6807 40.9634 66.1441C40.9634 65.6076 41.4024 65.1685 41.939 65.1685H43.8024C44.339 65.1685 44.778 65.6076 44.778 66.1441C44.778 66.6807 44.339 67.1198 43.8024 67.1198ZM43.8024 59.9685H41.939C41.4024 59.9685 40.9634 59.5295 40.9634 58.9929C40.9634 58.4563 41.4024 58.0173 41.939 58.0173H43.8024C44.339 58.0173 44.778 58.4563 44.778 58.9929C44.778 59.5295 44.339 59.9685 43.8024 59.9685ZM52.1731 74.271H50.3097C49.7731 74.271 49.3341 73.832 49.3341 73.2954C49.3341 72.7588 49.7731 72.3198 50.3097 72.3198H52.1731C52.7097 72.3198 53.1487 72.7588 53.1487 73.2954C53.1487 73.832 52.7097 74.271 52.1731 74.271ZM52.1731 67.1198H50.3097C49.7731 67.1198 49.3341 66.6807 49.3341 66.1441C49.3341 65.6076 49.7731 65.1685 50.3097 65.1685H52.1731C52.7097 65.1685 53.1487 65.6076 53.1487 66.1441C53.1487 66.6807 52.7097 67.1198 52.1731 67.1198ZM52.1731 59.9685H50.3097C49.7731 59.9685 49.3341 59.5295 49.3341 58.9929C49.3341 58.4563 49.7731 58.0173 50.3097 58.0173H52.1731C52.7097 58.0173 53.1487 58.4563 53.1487 58.9929C53.1487 59.5295 52.7097 59.9685 52.1731 59.9685ZM59.6561 74.271H58.6804C58.1439 74.271 57.7048 73.832 57.7048 73.2954C57.7048 72.7588 58.1439 72.3198 58.6804 72.3198H59.6561C60.1926 72.3198 60.6317 72.7588 60.6317 73.2954C60.6317 73.832 60.1926 74.271 59.6561 74.271ZM59.6561 67.1198H58.6804C58.1439 67.1198 57.7048 66.6807 57.7048 66.1441C57.7048 65.6076 58.1439 65.1685 58.6804 65.1685H59.6561C60.1926 65.1685 60.6317 65.6076 60.6317 66.1441C60.6317 66.6807 60.1926 67.1198 59.6561 67.1198ZM59.6561 59.9685H58.6804C58.1439 59.9685 57.7048 59.5295 57.7048 58.9929C57.7048 58.4563 58.1439 58.0173 58.6804 58.0173H59.6561C60.1926 58.0173 60.6317 58.4563 60.6317 58.9929C60.6317 59.5295 60.1926 59.9685 59.6561 59.9685Z" fill="#5C7A30"/>
</svg>
