<svg width="64" height="81" viewBox="0 0 64 81" fill="none" xmlns="http://www.w3.org/2000/svg">
<path d="M4.80158 75.2006V7.50565L0.310059 7.4887V80.7599H57.0389V76.387H5.98802C5.32701 76.387 4.80158 75.8616 4.80158 75.2006ZM51.5643 11.9972V0.844633L7.17447 0.759888V74.0141H63.9033V13.1667H52.7507C52.1067 13.1836 51.5643 12.6412 51.5643 11.9972ZM53.9372 2.5226V10.7938L62.2253 10.8107L53.9372 2.5226ZM12.2762 46.2853C11.6151 46.2853 11.0897 45.7599 11.0897 45.0989C11.0897 44.4379 11.6151 43.9124 12.2762 43.9124H22.7168C23.3779 43.9124 23.9033 44.4379 23.9033 45.0989C23.9033 45.7599 23.3779 46.2853 22.7168 46.2853H12.2762ZM12.2762 52.5226C11.6151 52.5226 11.0897 51.9972 11.0897 51.3362C11.0897 50.6751 11.6151 50.1497 12.2762 50.1497H26.3101C26.9711 50.1497 27.4965 50.6751 27.4965 51.3362C27.4965 51.9972 26.9711 52.5226 26.3101 52.5226H12.2762ZM12.2762 58.7429C11.6151 58.7429 11.0897 58.2175 11.0897 57.5565C11.0897 56.8955 11.6151 56.3701 12.2762 56.3701H29.6151C30.2762 56.3701 30.8016 56.8955 30.8016 57.5565C30.8016 58.2175 30.2762 58.7429 29.6151 58.7429H12.2762ZM12.2762 64.9802C11.6151 64.9802 11.0897 64.4548 11.0897 63.7938C11.0897 63.1328 11.6151 62.6073 12.2762 62.6073H23.3609C24.0219 62.6073 24.5473 63.1328 24.5473 63.7938C24.5473 64.4548 24.0219 64.9802 23.3609 64.9802H12.2762ZM12.2762 20.0819C11.6151 20.0819 11.0897 19.5565 11.0897 18.8955C11.0897 18.2345 11.6151 17.709 12.2762 17.709H18.8355C19.4965 17.709 20.0219 18.2345 20.0219 18.8955C20.0219 19.5565 19.4965 20.0819 18.8355 20.0819H12.2762ZM12.2762 26.3023C11.6151 26.3023 11.0897 25.7768 11.0897 25.1158C11.0897 24.4548 11.6151 23.9294 12.2762 23.9294H29.8863C30.5473 23.9294 31.0728 24.4548 31.0728 25.1158C31.0728 25.7768 30.5473 26.3023 29.8863 26.3023H12.2762ZM12.2762 32.5395C11.6151 32.5395 11.0897 32.0141 11.0897 31.3531C11.0897 30.6921 11.6151 30.1667 12.2762 30.1667H29.8863C30.5473 30.1667 31.0728 30.6921 31.0728 31.3531C31.0728 32.0141 30.5473 32.5395 29.8863 32.5395H12.2762ZM12.2762 38.7599C11.6151 38.7599 11.0897 38.2345 11.0897 37.5734C11.0897 36.9124 11.6151 36.387 12.2762 36.387H29.8863C30.5473 36.387 31.0728 36.9124 31.0728 37.5734C31.0728 38.2345 30.5473 38.7599 29.8863 38.7599H12.2762ZM42.8694 21.2853H49.4457C53.8016 21.2853 57.3779 24.8446 57.3779 29.2175V48.0311C57.3779 52.387 53.8185 55.9633 49.4457 55.9633H42.8694C38.5135 55.9633 34.9372 52.404 34.9372 48.0311V29.2175C34.9372 24.8446 38.4965 21.2853 42.8694 21.2853ZM42.666 23.6582V27.7599C42.666 28.4209 42.1406 28.9463 41.4795 28.9463C40.8185 28.9463 40.2931 28.4209 40.2931 27.7599V24.3023C38.4965 25.2514 37.3101 27.1158 37.3101 29.2175V32.404H42.6829C43.344 32.404 43.8694 32.9294 43.8694 33.5904C43.8694 34.2514 43.344 34.7768 42.6829 34.7768H37.3101V37.0819H42.6829C43.344 37.0819 43.8694 37.6073 43.8694 38.2684C43.8694 38.9294 43.344 39.4548 42.6829 39.4548H37.3101V41.7599H42.6829C43.344 41.7599 43.8694 42.2853 43.8694 42.9463C43.8694 43.6073 43.344 44.1328 42.6829 44.1328H37.3101V46.4379H40.988C41.649 46.4379 42.1745 46.9633 42.1745 47.6243C42.1745 48.2853 41.649 48.8107 40.988 48.8107H37.3609C37.7507 51.5226 40.0897 53.5904 42.8694 53.5904H49.4457C52.2253 53.5904 54.5643 51.5226 54.9541 48.8107H51.344C50.6829 48.8107 50.1575 48.2853 50.1575 47.6243C50.1575 46.9633 50.6829 46.4379 51.344 46.4379H54.988V44.1328H49.6151C48.9541 44.1328 48.4287 43.6073 48.4287 42.9463C48.4287 42.2853 48.9541 41.7599 49.6151 41.7599H54.988V39.4548H49.6151C48.9541 39.4548 48.4287 38.9294 48.4287 38.2684C48.4287 37.6073 48.9541 37.0819 49.6151 37.0819H54.988V34.7768H49.6151C48.9541 34.7768 48.4287 34.2514 48.4287 33.5904C48.4287 32.9294 48.9541 32.404 49.6151 32.404H54.988V29.2175C54.988 27.1158 53.8016 25.2514 52.005 24.3023V27.7599C52.005 28.4209 51.4796 28.9463 50.8185 28.9463C50.1575 28.9463 49.6321 28.4209 49.6321 27.7599V23.6582H47.327V27.7599C47.327 28.4209 46.8016 28.9463 46.1406 28.9463C45.4795 28.9463 44.9541 28.4209 44.9541 27.7599V23.6582H42.666ZM52.3609 65.8955H49.3948C49.1745 66.1667 48.8355 66.3531 48.4626 66.3531H43.8524C43.4795 66.3531 43.1406 66.1836 42.9202 65.8955H39.9541C39.0558 65.8955 38.327 66.6412 38.327 67.5396V69.1667H54.0219V67.5396C53.988 66.6412 53.2592 65.8955 52.3609 65.8955ZM45.0219 63.5226H47.2592V60.0311H45.0219V63.5226ZM39.9372 63.5226H42.649V60.0141C36.1406 59.5565 30.988 54.0819 30.988 47.5056C30.988 46.8446 31.5134 46.3192 32.1745 46.3192C32.8355 46.3192 33.3609 46.8446 33.3609 47.5056C33.3609 53.0989 37.9372 57.6751 43.5304 57.6751H48.7507C54.344 57.6751 58.9202 53.0989 58.9202 47.5056C58.9202 46.8446 59.4457 46.3192 60.1067 46.3192C60.7677 46.3192 61.2931 46.8446 61.2931 47.5056C61.2931 54.0819 56.1575 59.5565 49.649 60.0141V63.5226H52.3609C54.5643 63.5226 56.3609 65.3192 56.3609 67.5396V70.3531C56.3609 71.0141 55.8355 71.5396 55.1745 71.5396H37.1236C36.4626 71.5396 35.9372 71.0141 35.9372 70.3531V67.5396C35.9202 65.3192 37.7338 63.5226 39.9372 63.5226ZM12.2762 13.6751C11.6151 13.6751 11.0897 13.1497 11.0897 12.4887C11.0897 11.8277 11.6151 11.3023 12.2762 11.3023H45.9372C46.5982 11.3023 47.1236 11.8277 47.1236 12.4887C47.1236 13.1497 46.5982 13.6751 45.9372 13.6751H12.2762Z" fill="#5C7A30"/>
</svg>
