<svg width="81" height="81" viewBox="0 0 81 81" fill="none" xmlns="http://www.w3.org/2000/svg">
<g clip-path="url(#clip0_153_681)">
<path d="M54.9797 51.4427L51.1125 62.5802H58.9233L55.0547 51.4427H54.9797Z" fill="#5C7A30"/>
<path d="M50.686 10.8945C49.7251 6.5539 45.5174 2.57734 41.1659 1.73359C38.5144 1.2039 31.1177 0.549215 26.2256 0.60234C21.3335 0.549215 13.9368 1.2039 11.2852 1.73359C6.93376 2.57734 2.72603 6.5539 1.76512 10.8945C1.21825 13.5305 0.680762 17.1148 0.671387 22.0086C0.679199 26.9023 1.21669 30.4867 1.76512 33.1227C2.72603 37.4633 6.93376 41.4398 11.2852 42.2836C12.7165 42.5695 15.532 42.893 18.5898 43.1195C18.9367 43.6633 19.3116 44.243 19.7179 44.857C21.3397 47.3133 22.5819 49.0258 23.5225 50.2195C25.0881 52.2039 27.3662 52.2039 28.9318 50.2195C29.8724 49.0273 31.113 47.3148 32.7364 44.857C33.1426 44.243 33.5176 43.6633 33.8645 43.1195C36.9222 42.8914 39.7378 42.5695 41.169 42.2836C45.5205 41.4398 49.7282 37.4633 50.6892 33.1227C51.236 30.4867 51.7735 26.9023 51.7829 22.0086C51.7751 17.1148 51.2376 13.5289 50.6892 10.8945H50.686ZM40.8815 14.5664H36.3848C34.5973 18.9805 32.0239 22.9898 28.824 26.3711C28.949 26.4773 29.074 26.5852 29.2021 26.6883L32.1239 29.0914L37.5816 33.5789L35.3051 36.3383L26.9256 29.4477C26.6896 29.2539 26.4568 29.057 26.2256 28.857C25.9943 29.057 25.7631 29.2539 25.5272 29.4477L17.1476 36.3383L14.8711 33.5789L23.2506 26.6883C23.3772 26.5836 23.5038 26.4773 23.6288 26.3711C21.1257 23.7273 19.007 20.6992 17.3476 17.3945H21.4054C22.7553 19.7648 24.3756 21.9523 26.2256 23.9086C28.7912 21.1961 30.913 18.0352 32.4895 14.5648H11.5696V10.9898H24.435V7.53203H28.0146V10.9898H40.88V14.5648H40.8815V14.5664Z" fill="#5C7A30"/>
<path d="M79.5761 48.0755C78.6152 43.7349 74.4074 39.7584 70.0559 38.9146C67.4044 38.3849 60.0077 37.7302 55.1156 37.7834C54.6156 37.7771 54.0891 37.7802 53.5453 37.788C52.7047 39.3662 51.5735 40.8568 50.211 42.1615C47.8439 44.4271 44.9314 45.988 42.0112 46.5568C40.755 46.8068 38.7222 47.0662 36.3535 47.2849C34.8457 49.5677 33.4988 51.4615 32.3536 52.9162C31.5864 53.8896 30.6848 54.6505 29.6974 55.1834C29.6161 56.4115 29.5661 57.7412 29.563 59.1896C29.5708 64.0834 30.1083 67.6677 30.6567 70.3037C31.6176 74.6443 35.8254 78.6209 40.1768 79.4646C42.8284 79.9943 50.2251 80.649 55.1172 80.5959C60.0093 80.6505 67.406 79.9943 70.0575 79.4646C74.409 78.6209 78.6167 74.6443 79.5776 70.3037C80.1245 67.6677 80.662 64.0834 80.6714 59.1896C80.6636 54.2959 80.1261 50.7115 79.5776 48.0755H79.5761ZM61.9608 71.2412L60.4264 66.7584H49.8017L48.2673 71.2412H43.5533L52.9797 45.0912H57.2812L66.6701 71.2412H61.9561H61.9608Z" fill="#5C7A30"/>
<path d="M77.1825 21.9115C76.3262 21.0552 74.9388 21.0552 74.0825 21.9115L71.3623 24.6318H71.3576V18.0537C71.3576 13.4802 67.6373 9.75993 63.064 9.75993H59.1203C57.9125 9.75993 56.9329 10.7396 56.9329 11.9474C56.9329 13.1552 57.9125 14.1349 59.1203 14.1349H63.064C65.2249 14.1349 66.9827 15.8927 66.9827 18.0537V24.5334H66.978L64.2577 21.8131C63.4015 20.9568 62.014 20.9568 61.1578 21.8131C60.3015 22.6693 60.3015 24.0568 61.1578 24.9131L66.2139 29.9693C67.017 30.7724 68.0842 31.2146 69.2186 31.2146C70.3529 31.2146 71.4216 30.7724 72.2232 29.9693L77.1825 25.0099C77.6106 24.5818 77.8246 24.0209 77.8246 23.4599C77.8246 22.899 77.6106 22.3381 77.1825 21.9099V21.9115Z" fill="#5C7A30"/>
<path d="M22.2209 67.0615H18.2773C16.1164 67.0615 14.3586 65.3037 14.3586 63.1427V56.6631H14.3633L17.0835 59.3834C17.9398 60.2396 19.3272 60.2396 20.1835 59.3834C21.0397 58.5271 21.0397 57.1396 20.1835 56.2834L15.1273 51.2271C14.3242 50.424 13.257 49.9818 12.1227 49.9818C10.9883 49.9818 9.9196 50.424 9.11805 51.2271L4.15878 56.1865C3.73066 56.6146 3.5166 57.1756 3.5166 57.7365C3.5166 58.2974 3.73066 58.8584 4.15878 59.2865C5.01501 60.1428 6.40248 60.1428 7.25872 59.2865L9.97898 56.5662H9.98366V63.1443C9.98366 67.7178 13.7039 71.4381 18.2773 71.4381H22.2209C23.4287 71.4381 24.4084 70.4584 24.4084 69.2506C24.4084 68.0427 23.4287 67.0631 22.2209 67.0631V67.0615Z" fill="#5C7A30"/>
</g>
<defs>
<clipPath id="clip0_153_681">
<rect width="80" height="80" fill="white" transform="translate(0.671387 0.598999)"/>
</clipPath>
</defs>
</svg>
