<svg width="94" height="94" viewBox="0 0 94 94" fill="none" xmlns="http://www.w3.org/2000/svg">
<g clip-path="url(#clip0_282_1626)">
<path d="M93.76 25C93.76 23.28 92.35 21.88 90.64 21.88H55.87C56.37 24.83 56.41 28.2 55.89 31.26H62.51C64.56 31.3 64.56 34.35 62.51 34.38H55.21C54.91 35.44 54.57 36.49 54.15 37.5H85.95C88 37.54 88 40.59 85.95 40.62H52.68C52.09 41.71 51.43 42.76 50.71 43.74H85.94C86.8 43.74 87.5 44.44 87.5 45.3C87.5 46.16 86.8 46.86 85.94 46.86C85.66 46.83 48.41 46.92 48.16 46.83C45.97 49.14 43.43 51.11 40.63 52.64C40.62 59.2 40.63 85.23 40.63 90.61C40.63 92.33 42.03 93.73 43.75 93.73H90.63C92.35 93.73 93.75 92.33 93.75 90.61C93.71 85.61 93.78 31.39 93.75 24.99L93.76 25ZM85.95 62.5C87.99 62.54 88.01 65.59 85.95 65.62H48.45C46.41 65.58 46.39 62.53 48.45 62.5H85.95ZM85.95 71.88H48.45C46.41 71.84 46.39 68.79 48.45 68.76H85.95C87.99 68.8 88.01 71.85 85.95 71.88ZM85.95 78.13H48.45C46.41 78.09 46.39 75.04 48.45 75.01H85.95C87.99 75.05 88.01 78.1 85.95 78.13ZM48.45 50H73.45C75.49 50.04 75.51 53.09 73.45 53.12H48.45C46.41 53.08 46.39 50.03 48.45 50ZM48.45 56.25H62.51C64.56 56.29 64.56 59.34 62.51 59.37H48.45C46.4 59.33 46.4 56.28 48.45 56.25ZM90.64 90.63H43.76V89.07H90.64V90.63ZM90.64 85.94H43.76V84.38H90.64V85.94Z" fill="#5C7A30"/>
<path d="M36.02 81.31C26.23 79.92 18.73 71.38 19.17 61.6L21.13 63.14C22.06 63.92 23.61 63.23 23.65 62.02L25.04 40.73C25.08 40.21 24.85 39.72 24.45 39.4C24.04 39.08 23.5 38.98 23.02 39.14L2.67002 45.54C1.50002 45.87 1.19002 47.54 2.17002 48.26L6.75002 51.86C2.23002 68.16 18.63 85 34.9 84.44C35.97 84.55 37.29 84.24 37.35 82.96C37.4 82.16 36.83 81.44 36.03 81.32L36.02 81.31Z" fill="#5C7A30"/>
<path d="M16.78 37.83C16.5 36.02 17.17 34.08 15.75 32.31C14.33 30.58 12.34 30.78 10.64 30.22C7.82002 28.86 6.68002 24.61 3.33002 23.72C3.88002 19.11 5.78002 14.91 8.61002 11.53C9.52002 12.73 10.73 13.69 12.13 14.23C13.18 14.66 15.06 14.92 15.68 15.68C16.2 16.33 16 17.85 15.93 18.96C15.5 25.01 20.86 26.86 24.81 21.82C25.84 20.62 26.98 19.93 27.45 20.23C28.35 21.08 27.5 22.67 27.15 23.76C25.7 27.82 25.63 31.51 26.96 34.43C29.2 39.25 35.05 40.36 37.9 33.57C38.55 32.06 39.23 30.18 40.43 29.51C42.99 28.28 46.89 30.61 49.81 29.71C48.31 40.82 38.98 49.49 27.59 49.96L27.39 53.1C41.69 52.72 53.21 40.77 53.16 26.55C53.18 12.16 41.27 -0.0700062 26.57 -6.16122e-06C5.30002 -0.0600062 -7.41998 24.29 4.72002 41.61L16.78 37.83Z" fill="#5C7A30"/>
</g>
<defs>
<clipPath id="clip0_282_1626">
<rect width="93.77" height="93.75" fill="white"/>
</clipPath>
</defs>
</svg>
