<svg width="97" height="100" viewBox="0 0 97 100" fill="none" xmlns="http://www.w3.org/2000/svg">
<g clip-path="url(#clip0_281_1621)">
<path d="M42.55 82.9C43 82.02 43.39 81.09 43.7 80.14C44.05 79.04 45.06 78.31 46.19 78.31H51.4V70.3H46.19C45.05 70.3 44.05 69.56 43.7 68.47C43.39 67.53 43.01 66.6 42.55 65.71C42.03 64.68 42.22 63.45 43.02 62.65L46.7 58.97L41.04 53.31L37.36 56.99C36.55 57.8 35.32 57.98 34.3 57.46C33.42 57.01 32.49 56.62 31.54 56.32C30.44 55.97 29.71 54.96 29.71 53.82V48.6H21.7V53.81C21.7 54.95 20.97 55.95 19.87 56.31C18.93 56.62 18 57 17.11 57.45C16.08 57.98 14.86 57.79 14.05 56.98L10.36 53.3L4.7 58.96L8.38 62.64C9.18 63.44 9.37 64.67 8.84 65.7C8.39 66.59 8 67.51 7.7 68.46C7.35 69.56 6.34 70.29 5.2 70.29H0V78.3H5.21C6.35 78.3 7.35 79.04 7.71 80.13C8.02 81.07 8.4 82 8.85 82.89C9.38 83.92 9.19 85.15 8.39 85.95L4.71 89.63L10.37 95.29L14.05 91.61C14.86 90.8 16.08 90.62 17.11 91.14C18 91.59 18.92 91.98 19.87 92.28C20.97 92.64 21.7 93.64 21.7 94.78V100H29.71V94.79C29.71 93.65 30.44 92.65 31.54 92.29C32.49 91.98 33.41 91.6 34.3 91.15C35.33 90.62 36.56 90.81 37.36 91.62L41.04 95.3L46.7 89.64L43.02 85.96C42.22 85.15 42.03 83.92 42.55 82.9ZM25.7 83.35C23.28 83.35 21.01 82.41 19.3 80.7C17.59 78.99 16.65 76.72 16.65 74.3C16.65 71.88 17.59 69.61 19.3 67.9C23.11 64.09 29.5 64.39 32.89 68.81C33.86 70.07 34.48 71.58 34.68 73.16C35.02 75.99 34.07 78.72 32.1 80.7C30.39 82.41 28.11 83.35 25.7 83.35Z" fill="#5C7A30"/>
<path d="M28.51 71.23L24.62 75.69L22.82 73.89C22.27 73.34 21.36 73.34 20.81 73.89C20.26 74.44 20.26 75.34 20.81 75.9L23.69 78.77C23.96 79.04 24.32 79.19 24.69 79.19H24.74C25.13 79.18 25.5 79 25.76 78.7L30.64 73.1C31.15 72.51 31.09 71.61 30.51 71.1C29.92 70.57 29.02 70.63 28.51 71.23Z" fill="#5C7A30"/>
<path d="M92.15 48.81C90.09 46.78 86.27 42.99 86.49 41.53C88.93 25.59 83.78 12.87 72 5.71999C65.06 1.51999 56.11 -0.480015 46.82 0.0999851C37.65 0.669985 28.92 3.67999 22.22 8.58998C11.17 16.68 6.90999 28.66 10.22 42.33C11.14 46.16 12.76 49.73 14.53 53.46L15.94 54.87C16.59 54.55 17.25 54.25 17.93 53.99C18.24 53.87 18.55 53.76 18.86 53.66V48.4C18.86 46.94 20.05 45.76 21.5 45.76H29.91C31.36 45.76 32.55 46.95 32.55 48.4V53.65C33.55 53.98 34.53 54.39 35.47 54.86L39.18 51.15C39.68 50.65 40.34 50.38 41.05 50.38C41.76 50.38 42.42 50.65 42.91 51.15L48.86 57.09C49.89 58.12 49.89 59.79 48.86 60.82L45.15 64.53C45.63 65.47 46.03 66.45 46.36 67.45H51.61C53.07 67.45 54.25 68.63 54.25 70.09V78.5C54.25 79.96 53.07 81.14 51.61 81.14H46.36C46.03 82.14 45.62 83.12 45.15 84.06L48.86 87.77C49.15 88.06 49.35 88.39 49.47 88.75C49.81 89.68 49.6 90.76 48.86 91.5L48.78 91.58L58.7 91.68H58.74C60.61 91.68 62.24 90.4 62.7 88.55C63.08 87.01 63.98 85.19 65.29 83.28C65.85 82.46 66.91 82.13 67.85 82.47C72.97 84.4 77.62 83.96 79.15 83.82H79.31C80.57 83.7 81.63 83.08 82.37 82.03C84.22 79.43 83.83 74.34 83.29 70.88C83.13 69.84 83.82 68.86 84.86 68.69C85.26 68.62 85.68 68.55 86.09 68.47C90.85 67.57 91.91 66.62 92.36 65.71C92.84 64.71 92.24 63.84 91.13 62.24C90.63 61.52 89.54 59.94 89.33 59.18C89.85 58.89 90.96 58.48 91.73 58.2C94.38 57.22 96.03 56.56 96.43 55.17C96.89 53.59 95.45 52.08 92.15 48.81Z" fill="#5C7A30"/>
</g>
<defs>
<clipPath id="clip0_281_1621">
<rect width="96.51" height="100" fill="white"/>
</clipPath>
</defs>
</svg>
