<svg width="101" height="90" viewBox="0 0 101 90" fill="none" xmlns="http://www.w3.org/2000/svg">
<path fill-rule="evenodd" clip-rule="evenodd" d="M12.5225 9.77273C10.849 9.77273 9.49223 11.1295 9.49223 12.803V76.572L15.9334 72.5462C17.7725 71.3962 19.8865 70.7614 22.0547 70.7076L88.3558 69.05C89.9998 69.0091 91.3104 67.6644 91.3104 66.0205V12.803C91.3104 11.1295 89.9536 9.77273 88.2801 9.77273H12.5225ZM0.401306 12.803C0.401306 6.10871 5.82821 0.681808 12.5225 0.681808H88.2801C94.9748 0.681808 100.401 6.10871 100.401 12.803V66.0205C100.401 72.597 95.1574 77.9735 88.5831 78.1379L22.2819 79.7955C21.7398 79.8091 21.2113 79.9675 20.7516 80.2553L7.35586 88.6273C5.95465 89.5031 4.18858 89.5493 2.74328 88.7485C1.29805 87.9478 0.401306 86.425 0.401306 84.7728V12.803Z" fill="#5C7A30"/>
<path fill-rule="evenodd" clip-rule="evenodd" d="M23.1286 50.6819C23.1286 48.1715 25.1637 46.1364 27.6741 46.1364H65.5528C68.0634 46.1364 70.0982 48.1715 70.0982 50.6819C70.0982 53.1923 68.0634 55.2273 65.5528 55.2273H27.6741C25.1637 55.2273 23.1286 53.1923 23.1286 50.6819Z" fill="#5C7A30"/>
<path fill-rule="evenodd" clip-rule="evenodd" d="M23.1286 35.5303C23.1286 33.02 25.1637 30.9849 27.6741 30.9849H35.2498C37.7603 30.9849 39.7953 33.02 39.7953 35.5303C39.7953 38.0407 37.7603 40.0758 35.2498 40.0758H27.6741C25.1637 40.0758 23.1286 38.0407 23.1286 35.5303Z" fill="#5C7A30"/>
<path fill-rule="evenodd" clip-rule="evenodd" d="M45.8559 35.5303C45.8559 33.02 47.891 30.9849 50.4014 30.9849H73.1285C75.6391 30.9849 77.674 33.02 77.674 35.5303C77.674 38.0407 75.6391 40.0758 73.1285 40.0758H50.4014C47.891 40.0758 45.8559 38.0407 45.8559 35.5303Z" fill="#5C7A30"/>
</svg>
